<?xml version="1.0" standalone="no"?>
<!DOCTYPE svg PUBLIC "-//W3C//DTD SVG 1.1//EN" "http://www.w3.org/Graphics/SVG/1.1/DTD/svg11.dtd" >
<svg xmlns="http://www.w3.org/2000/svg" xmlns:xlink="http://www.w3.org/1999/xlink" version="1.1">
<metadata>
Created by FontForge 20170910 at Sat Aug  6 11:00:37 2005
 By Jimmy Wärting
Preradio Nikola Kovanovic.
</metadata>
<defs>
<font id="Azbuka04" horiz-adv-x="600" >
  <font-face 
    font-family="Azbuka04"
    font-weight="400"
    font-stretch="normal"
    units-per-em="1000"
    panose-1="2 0 5 0 3 0 0 2 0 4"
    ascent="800"
    descent="-200"
    x-height="502"
    cap-height="686"
    bbox="-99 -187 1170 900"
    underline-thickness="50"
    underline-position="-100"
    unicode-range="U+0020-2219"
  />
<missing-glyph horiz-adv-x="233" 
 />
    <glyph glyph-name=".notdef" horiz-adv-x="233" 
 />
    <glyph glyph-name=".null" horiz-adv-x="0" 
 />
    <glyph glyph-name="nonmarkingreturn" horiz-adv-x="233" 
 />
    <glyph glyph-name="space" unicode=" " horiz-adv-x="233" 
 />
    <glyph glyph-name="space" unicode="&#xa0;" horiz-adv-x="233" 
 />
    <glyph glyph-name="numbersign" unicode="#" horiz-adv-x="630" 
d="M270 425l-49 -141h139l49 141h-139zM339 626l-51 -147h139l51 147h60l-51 -147h134l-19 -54h-133l-49 -141h142l-19 -54h-142l-51 -148h-60l51 148h-139l-51 -148h-60l51 148h-133l18 54h134l49 141h-142l19 54h141l51 147h60z" />
    <glyph glyph-name="dollar" unicode="$" horiz-adv-x="510" 
d="M306 101q43 2 72.5 28t29.5 77q0 10 -2 24t-10.5 28.5t-26 28t-48.5 21.5l-15 4v-211zM256 585q-24 1 -43 -6.5t-32 -21t-20 -31.5t-7 -38q0 -27 8 -45t20.5 -29t28.5 -17t32 -10l13 -3v201zM256 323q-48 10 -80 26t-51 37t-26.5 46t-7.5 51q0 34 13 63t35 50t52 33
t65 14v66l50 18v-84q31 -4 55 -13t42 -19.5t29.5 -21.5t19.5 -20l-37 -40q-15 16 -42.5 34t-66.5 22v-212q25 -4 53.5 -13.5t53.5 -27.5t41.5 -46t16.5 -69q0 -38 -12.5 -69.5t-34.5 -54t-52.5 -35.5t-65.5 -15v-100l-50 -11v111q-51 4 -96.5 27t-79.5 67l47 40
q21 -29 54 -50t75 -26v222z" />
    <glyph glyph-name="percent" unicode="%" horiz-adv-x="833" 
d="M336 514q0 25 -10 47.5t-26.5 39.5t-39 26.5t-47.5 9.5q-26 0 -48 -10t-39 -26.5t-26.5 -39t-9.5 -47.5t9.5 -47.5t26.5 -39t39 -26.5t48 -10q25 0 47.5 9.5t39 26.5t26.5 39t10 48zM630 686l-397 -702h-49l337 580l-2 2q-23 -15 -41.5 -20.5t-43.5 -5.5q-17 0 -30.5 5.5
t-24.5 13.5l-2 -2q3 -8 5 -17t2 -26q0 -35 -14 -66.5t-37.5 -54.5t-54.5 -36.5t-65 -13.5q-36 0 -67 13.5t-54 37t-36.5 54.5t-13.5 66q0 36 13.5 67t36.5 54t54 36.5t67 13.5q73 0 123 -53l4 -3l17.5 -15t23 -17.5t28.5 -14.5t36 -6q41 0 74 31t60 79h51zM727 170
q0 25 -10 47.5t-26.5 39t-39 26.5t-47.5 10q-26 0 -48 -10t-39 -27t-26.5 -39t-9.5 -47t9.5 -47t26.5 -39t39 -27t48 -10q25 0 47.5 10t39 26.5t26.5 39t10 47.5zM433 170q0 35 13.5 66t36.5 54.5t54 37t67 13.5q35 0 66 -13.5t54.5 -37t37 -54.5t13.5 -66q0 -36 -13.5 -67
t-37 -54t-54.5 -36.5t-66 -13.5q-36 0 -67 13.5t-54 36.5t-36.5 54t-13.5 67z" />
    <glyph glyph-name="ampersand" unicode="&#x26;" horiz-adv-x="619" 
d="M258 440q15 11 32 26t31.5 33t24 38.5t9.5 42.5q0 18 -8 30.5t-20 20.5t-25.5 11.5t-24.5 3.5q-33 0 -57.5 -24t-24.5 -72q0 -29 13 -61t37 -59zM235 344l-42 -40q-14 -13 -29.5 -27.5t-28.5 -32.5t-22 -39.5t-9 -46.5q0 -26 10.5 -45.5t26 -32.5t34.5 -19.5t36 -6.5
q21 0 39.5 8.5t35 21.5t30 27t25.5 25l38 36zM424 218l119 121l47 -45l-127 -127l123 -143l-56 -37l-112 135l-36 -36q-19 -19 -37.5 -37t-38.5 -31.5t-43 -21.5t-51 -8q-37 0 -69 13t-55 36t-36.5 54.5t-13.5 69.5q0 36 10.5 63t26.5 49t35.5 39.5t36.5 34.5l48 47
q-23 27 -36 51.5t-19.5 44.5t-8.5 35.5t-2 26.5q0 34 11.5 62.5t31.5 49t48.5 31.5t61.5 11q32 0 58 -11.5t44 -29.5t27.5 -41t9.5 -46q0 -27 -9.5 -49t-24 -41.5t-33 -37t-36.5 -34.5l-34 -32z" />
    <glyph glyph-name="quotesingle" unicode="'" horiz-adv-x="222" 
d="M82 686h58v-271h-58v271z" />
    <glyph glyph-name="parenleft" unicode="(" horiz-adv-x="333" 
d="M274 656q-37 -26 -74 -61.5t-67 -82.5t-48.5 -106.5t-18.5 -131.5q0 -121 55 -218t159 -159l-24 -44q-56 35 -101 80.5t-76.5 99.5t-48.5 115.5t-17 128.5q0 70 18.5 133t51 117t77.5 98t98 77z" />
    <glyph glyph-name="parenright" unicode=")" horiz-adv-x="333" 
d="M59 -99q37 25 74 60t67 82t48.5 106.5t18.5 131.5q0 121 -55 218t-159 157l24 46q66 -40 112.5 -91t75.5 -107t42 -114t13 -112q0 -71 -18.5 -133.5t-51 -116.5t-77.5 -98t-98 -77z" />
    <glyph glyph-name="asterisk" unicode="*" horiz-adv-x="444" 
d="M197 556v135l47 11v-147l119 70l34 -36l-136 -74l129 -68l-15 -44l-131 76v-140l-47 -12v152l-120 -71l-30 35l132 76l-125 67l14 44z" />
    <glyph glyph-name="plus" unicode="+" 
d="M271 502h58v-222h222v-58h-222v-222h-58v222h-222v58h222v222z" />
    <glyph glyph-name="comma" unicode="," horiz-adv-x="281" 
d="M133 72l75 11l-103 -267h-54z" />
    <glyph glyph-name="period" unicode="." horiz-adv-x="250" 
d="M125 112l52 -59l-52 -59l-52 59z" />
    <glyph glyph-name="slash" unicode="/" horiz-adv-x="278" 
d="M50 -16h-50l229 718h50z" />
    <glyph glyph-name="zero" unicode="0" horiz-adv-x="594" 
d="M297 640q-42 0 -79 -21.5t-64 -60.5t-42.5 -94t-15.5 -121t15.5 -121t42.5 -94t64 -60.5t79 -21.5t79 21.5t64 60.5t42.5 94t15.5 121t-15.5 121t-42.5 94t-64 60.5t-79 21.5zM297 702q44 0 91.5 -19.5t86.5 -62t64.5 -111t25.5 -166.5t-25.5 -166.5t-64.5 -111.5
t-86.5 -62t-91.5 -19t-91.5 19t-86.5 62t-64.5 111.5t-25.5 166.5t25.5 166.5t64.5 111t86.5 62t91.5 19.5z" />
    <glyph glyph-name="one" unicode="1" horiz-adv-x="553" 
d="M347 723l8 -1v-722l-64 1v613l-5 3l-177 -110l-24 49z" />
    <glyph glyph-name="two" unicode="2" horiz-adv-x="544" 
d="M225 275q-41 9 -74.5 28.5t-57.5 48t-37 63.5t-13 76q0 46 17.5 85t48 67t71.5 43.5t88 15.5q48 0 89.5 -15.5t72 -44t48 -69t17.5 -89.5q0 -53 -20.5 -99t-59.5 -94t-96.5 -103.5t-131.5 -125.5h298v-62h-442l217 220q34 35 65 67t54.5 64t37 64t13.5 67q0 31 -11 59.5
t-32 50.5t-51.5 35t-69.5 13t-68.5 -13t-49.5 -34t-30 -47.5t-10 -52.5q0 -20 5.5 -45.5t22.5 -50.5t49.5 -45t86.5 -27z" />
    <glyph glyph-name="three" unicode="3" horiz-adv-x="513" 
d="M172 389h57q33 0 59 11t44 29t27.5 42.5t9.5 51.5q0 22 -7.5 43t-23.5 37.5t-40.5 26.5t-58.5 10q-27 0 -50 -7.5t-41 -19t-32 -26t-24 -28.5l-44 41q16 19 36.5 37.5t45 33t53.5 23t61 8.5q40 0 75 -14t60.5 -38t40 -57t14.5 -71q0 -47 -26 -90.5t-83 -65.5
q60 -21 93 -71.5t33 -113.5q0 -42 -16 -78t-44.5 -62t-69 -41t-89.5 -15q-37 0 -68 10.5t-56 28.5t-44.5 41.5t-33.5 49.5l51 36q3 -7 13.5 -24t29.5 -35t48 -31.5t70 -13.5q31 0 57 10t45.5 28t30.5 43t11 55q0 28 -9.5 55t-28.5 48t-48 33.5t-68 12.5h-60v57z" />
    <glyph glyph-name="four" unicode="4" horiz-adv-x="540" 
d="M315 250v293h-4l-193 -290v-3h197zM315 192h-303l363 533h4v-475h112v-58h-112v-192h-64v192z" />
    <glyph glyph-name="five" unicode="5" horiz-adv-x="514" 
d="M72 133q27 -41 69 -64t91 -23q32 0 61.5 11t51.5 32t35 51t13 69q0 37 -12.5 68t-34.5 53.5t-52.5 35t-66.5 12.5q-38 0 -73.5 -14.5t-64.5 -37.5v360h309v-62h-245v-204q25 13 46.5 16.5t39.5 3.5q48 0 88.5 -17.5t70 -48t46 -73t16.5 -92.5q0 -45 -16 -86t-45 -72
t-71 -49t-93 -18q-56 0 -112.5 25t-96.5 81z" />
    <glyph glyph-name="six" unicode="6" horiz-adv-x="572" 
d="M291 419q-34 0 -68 -12.5t-61 -36.5t-43.5 -59.5t-16.5 -82.5q0 -44 16 -78t42 -57t59 -35t68 -12q36 0 69.5 13t59 36.5t40.5 56.5t15 73q0 41 -14 76.5t-38 61.5t-57 41t-71 15zM411 685q-20 -13 -48 -34t-61 -52t-70.5 -73.5t-75.5 -98.5q40 28 79.5 37t65.5 9
q40 0 81.5 -16.5t75.5 -48t55.5 -78t21.5 -106.5q0 -53 -20 -97t-54.5 -76t-79.5 -49.5t-94 -17.5q-47 0 -92 16.5t-80 48t-56 78t-21 105.5q0 69 27.5 138.5t72.5 134t102 120.5t115 98z" />
    <glyph glyph-name="seven" unicode="7" horiz-adv-x="549" 
d="M232 0h-69l243 628h-341v58h425z" />
    <glyph glyph-name="eight" unicode="8" horiz-adv-x="510" 
d="M107 187q0 -29 11.5 -54.5t32 -45t47.5 -30.5t57 -11t57 11t47.5 30.5t32 45t11.5 54.5q0 30 -12 55.5t-32 44.5t-47 30t-57 11t-57 -11t-47 -30t-32 -44.5t-12 -55.5zM121 513q0 -26 10.5 -49.5t28.5 -40.5t42.5 -27t52.5 -10t52.5 10t42.5 27t28.5 40.5t10.5 49.5
q0 27 -10.5 50t-29 40t-43 27t-51.5 10t-51.5 -10t-43 -27t-29 -40t-10.5 -50zM169 360q-47 18 -80 59t-33 103q0 33 13 65t38 57.5t62 41.5t86 16q41 0 77 -12.5t63 -36t43 -57t16 -74.5q0 -62 -33 -103t-80 -59q32 -9 56.5 -27.5t40.5 -42.5t24 -52.5t8 -56.5
q0 -45 -18.5 -81.5t-48.5 -62t-68.5 -39.5t-79.5 -14t-79.5 14t-68.5 39.5t-48.5 62t-18.5 81.5q0 61 34 110.5t95 68.5z" />
    <glyph glyph-name="nine" unicode="9" horiz-adv-x="563" 
d="M277 267q33 0 67 12t61 36t44 59.5t17 83.5q0 40 -15 73.5t-40 57.5t-59 37.5t-71 13.5q-36 0 -69.5 -13t-59 -36.5t-40.5 -56.5t-15 -73q0 -43 14.5 -78.5t39 -61t57 -40t69.5 -14.5zM157 1q54 36 99.5 79t78.5 81t53 65.5t24 32.5q-40 -28 -79 -37t-66 -9
q-48 0 -91 18.5t-74.5 51.5t-50 79t-18.5 100q0 60 23.5 105t60 75t80 45t84.5 15q52 0 97.5 -19.5t79 -53t53 -78.5t19.5 -97q0 -56 -21 -119t-61.5 -127t-99.5 -127t-135 -118z" />
    <glyph glyph-name="colon" unicode=":" horiz-adv-x="250" 
d="M125 372l52 -59l-52 -59l-52 59zM125 112l52 -59l-52 -59l-52 59z" />
    <glyph glyph-name="semicolon" unicode=";" horiz-adv-x="250" 
d="M125 372l52 -59l-52 -59l-52 59zM80 72l75 11l-103 -267h-54z" />
    <glyph glyph-name="semicolon" unicode="&#x37e;" horiz-adv-x="250" 
d="M125 372l52 -59l-52 -59l-52 59zM80 72l75 11l-103 -267h-54z" />
    <glyph glyph-name="less" unicode="&#x3c;" horiz-adv-x="615" 
d="M569 64l-25 -51l-498 238l498 238l25 -51l-392 -187z" />
    <glyph glyph-name="equal" unicode="=" 
d="M551 123h-502v58h502v-58zM551 321h-502v58h502v-58z" />
    <glyph glyph-name="greater" unicode="&#x3e;" horiz-adv-x="615" 
d="M46 438l25 51l498 -238l-498 -238l-25 51l392 187z" />
    <glyph glyph-name="question" unicode="?" horiz-adv-x="452" 
d="M240 106l51 -62l-51 -60l-53 60zM28 568q21 71 74 108t120 37q47 0 84.5 -15.5t64 -42t40.5 -61t14 -72.5q0 -35 -10 -62t-25.5 -48.5t-35.5 -38.5t-40 -32q-14 -11 -23.5 -18.5t-15 -14t-7.5 -14t-2 -19.5v-90l-58 -14v118q0 21 7 36t18 27.5t25 23t29 22.5
q31 26 51 54.5t20 73.5q0 23 -8 45.5t-24.5 40t-42 28.5t-59.5 11q-55 0 -91.5 -33t-48.5 -81z" />
    <glyph glyph-name="at" unicode="@" horiz-adv-x="800" 
d="M557 535h56l-89 -278q-3 -11 -6.5 -20t-3.5 -20v-14t2 -12.5t8 -9t17 -3.5q19 0 44 16.5t47 46.5t37 71t15 89q0 54 -20.5 100t-56 79t-84.5 51.5t-106 18.5q-65 0 -120 -24.5t-95.5 -67t-63 -99t-22.5 -120.5q0 -62 23.5 -117.5t64.5 -96.5t96.5 -65t119.5 -24
q22 0 52 4.5t61.5 16t62.5 31.5t57 50l37 -31q-28 -34 -60.5 -57.5t-67.5 -38t-71 -21t-71 -6.5q-75 0 -141 28t-115 77t-77.5 115t-28.5 142q0 74 28.5 139t77.5 113t114 76t137 28q61 0 119.5 -20.5t104.5 -59t74.5 -93.5t28.5 -125q0 -54 -19 -104t-50.5 -88.5t-71.5 -61
t-82 -22.5q-23 0 -35.5 9t-18.5 20.5t-7.5 21.5t-1.5 12h-2q-8 -8 -20.5 -19t-28.5 -21t-34.5 -16.5t-39.5 -6.5q-20 0 -43 7t-43.5 24t-34 45.5t-13.5 70.5q0 50 17 99.5t47 89.5t70 64.5t85 24.5q42 0 73 -21t45 -59zM262 281q0 -26 7 -45t18.5 -31.5t26.5 -18.5t30 -6
q32 0 60.5 20.5t50.5 52.5t34.5 70.5t12.5 74.5q0 52 -23.5 77.5t-58.5 25.5q-30 0 -58 -19t-50.5 -49.5t-36 -70t-13.5 -81.5z" />
    <glyph glyph-name="B" unicode="B" horiz-adv-x="520" 
d="M141 64h131q28 0 52 8.5t42 24.5t28 38.5t10 49.5q0 28 -9.5 51.5t-27.5 41t-42.5 27.5t-54.5 10h-129v-251zM141 379h115q37 0 62 11.5t40.5 29.5t22 39t6.5 40q0 25 -9.5 47t-27 39t-43.5 27t-59 10h-107v-243zM74 686h175q48 0 86.5 -14t65.5 -38.5t41.5 -57
t14.5 -69.5q0 -48 -22 -90t-73 -65v-3q49 -17 81.5 -58t32.5 -104q0 -41 -14.5 -75t-42 -59t-67.5 -39t-90 -14h-188v686z" />
    <glyph glyph-name="C" unicode="C" horiz-adv-x="587" 
d="M547 584q-36 28 -76.5 41t-83.5 13q-74 0 -128.5 -27t-90 -70t-53 -96t-17.5 -105q0 -59 22.5 -112t62.5 -93t93 -63.5t115 -23.5q30 0 71 12.5t80 42.5l-10 -87q-30 -13 -69.5 -22.5t-87.5 -9.5q-83 0 -147.5 33t-109.5 85t-68.5 116.5t-23.5 126.5q0 71 27 135.5
t75.5 114t115 78.5t144.5 29q29 0 69 -6t79 -26z" />
    <glyph glyph-name="D" unicode="D" horiz-adv-x="603" 
d="M141 64h104q55 0 101.5 22.5t81 61t54 89.5t19.5 109q0 56 -19.5 106.5t-54 88t-82 59.5t-103.5 22h-101v-558zM238 686q70 0 131 -25.5t106.5 -71.5t71.5 -108.5t26 -135.5q0 -76 -26.5 -139.5t-73 -109t-108.5 -71t-134 -25.5h-157v686h164z" />
    <glyph glyph-name="F" unicode="F" horiz-adv-x="394" 
d="M371 686v-64h-230v-242h189v-64h-189v-316h-67v686h297z" />
    <glyph glyph-name="G" unicode="G" horiz-adv-x="692" 
d="M586 558q-16 15 -36.5 29t-46 25.5t-55.5 18.5t-64 7q-56 0 -108 -21.5t-91.5 -61t-63 -95t-23.5 -122.5q0 -54 19.5 -106t57 -93t92 -66t123.5 -25q48 0 92.5 14t90.5 49v194h-206v64h278v-291q-38 -31 -74 -49.5t-69 -28.5t-62 -13t-51 -3q-90 0 -157.5 31.5t-113.5 82
t-69 113.5t-23 126q0 67 24 132.5t70 117t113.5 83.5t154.5 32q26 0 55.5 -4t60 -14t62 -27.5t62.5 -45.5z" />
    <glyph glyph-name="I" unicode="I" horiz-adv-x="227" 
d="M80 686l67 -1v-685l-67 1v685z" />
    <glyph glyph-name="J" unicode="J" horiz-adv-x="403" 
d="M329 685v-516q0 -40 -11.5 -74t-34.5 -58.5t-57 -38.5t-79 -14q-25 0 -58.5 8t-75.5 40l34 54q20 -17 45.5 -27.5t51.5 -10.5q18 0 39 5.5t38.5 20.5t29 41t11.5 68v503z" />
    <glyph glyph-name="L" unicode="L" horiz-adv-x="394" 
d="M74 0v686l67 -1v-621h231v-64h-298z" />
    <glyph glyph-name="M" unicode="M" horiz-adv-x="762" 
d="M162 487h-3l-87 -487h-70l135 702h3l238 -567h4l231 566h3l136 -701h-66l-90 492h-3l-214 -514z" />
    <glyph glyph-name="N" unicode="N" horiz-adv-x="693" 
d="M548 157h4v529l67 -1v-701l-475 546l-3 -1v-529h-67v702z" />
    <glyph glyph-name="O" unicode="O" horiz-adv-x="786" 
d="M98 345q0 -62 22.5 -116t62 -94.5t93.5 -63.5t117 -23t117 23t93.5 63.5t62 94.5t22.5 116q0 52 -19.5 104.5t-57 94.5t-92.5 68t-126 26t-126 -26t-92.5 -68t-57 -94.5t-19.5 -104.5zM26 342q0 87 34 154.5t87.5 113t118.5 69t127 23.5t127 -23.5t118.5 -69t87.5 -113
t34 -154.5q0 -69 -27 -134t-76 -114.5t-116 -79.5t-148 -30t-148 30t-116 79.5t-76 114.5t-27 134z" />
    <glyph glyph-name="P" unicode="P" horiz-adv-x="481" 
d="M141 289q15 -2 29.5 -2.5t29.5 -0.5q48 0 82.5 14.5t57 38t33 53t10.5 60.5q0 33 -11.5 64t-34.5 55.5t-56.5 39t-76.5 14.5h-63v-336zM74 686h117q72 0 122 -22t81.5 -56t46 -75.5t14.5 -81.5q0 -47 -18.5 -89t-52.5 -73t-83 -49t-109 -18q-26 0 -51 3v-225h-67v686z
" />
    <glyph glyph-name="Q" unicode="Q" horiz-adv-x="786" 
d="M607 142q45 48 63 100.5t18 100.5q0 60 -23.5 113.5t-64 94t-94 64t-113.5 23.5q-59 0 -112.5 -24t-94 -64.5t-64.5 -94t-24 -112.5t23.5 -112.5t64 -94t94 -64.5t113.5 -24q12 0 30 1.5t40 7t46 15.5t48 27l-97 89l51 42zM606 54q-43 -32 -96.5 -51t-116.5 -19
q-75 0 -141.5 28t-117 77t-79.5 114t-29 140t29 140t79.5 114t117 77t141.5 28t141.5 -28t117 -77t79.5 -114t29 -140q0 -72 -28 -135t-76 -111l130 -119l-51 -43z" />
    <glyph glyph-name="R" unicode="R" horiz-adv-x="503" 
d="M135 334h84q31 0 57.5 11.5t46 31t30.5 46t11 57.5q0 28 -10 53.5t-28.5 45t-46.5 31.5t-64 12h-80v-288zM210 686q57 0 99.5 -17t70.5 -45.5t42 -65.5t14 -77q0 -38 -12 -72t-34.5 -61t-55 -44t-74.5 -20l241 -284h-91l-271 326h-4v-326h-67v686h142z" />
    <glyph glyph-name="S" unicode="S" horiz-adv-x="487" 
d="M83 147q22 -43 62.5 -71t94.5 -28q31 0 57.5 9.5t45.5 26t30 39.5t11 50q0 39 -17 63.5t-44.5 41t-63 28.5t-71.5 26q-24 9 -49.5 23t-46 35.5t-33.5 51.5t-13 71t15.5 75.5t43.5 60t66 39.5t83 14q63 0 108.5 -26t74.5 -60l-49 -52q-21 31 -55 52.5t-80 21.5
q-62 0 -98.5 -36t-36.5 -91q0 -31 13 -52.5t33 -36.5t44.5 -25t48.5 -18q31 -11 66.5 -25t64.5 -37t48.5 -57.5t19.5 -85.5q0 -37 -14 -71.5t-41.5 -60.5t-68 -42t-92.5 -16q-19 0 -45 3.5t-54.5 16t-57 36t-52.5 63.5z" />
    <glyph glyph-name="U" unicode="U" horiz-adv-x="639" 
d="M565 217q0 -55 -18 -98.5t-50.5 -73.5t-77.5 -45.5t-99 -15.5q-50 0 -94.5 14t-78.5 43t-53.5 73t-19.5 103v469h67v-471q0 -41 14.5 -72t39.5 -52t57.5 -32t67.5 -11q46 0 80 14.5t55.5 40t32 59t10.5 72.5v452h67v-469z" />
    <glyph glyph-name="V" unicode="V" horiz-adv-x="664" 
d="M80 686l252 -548h4l245 548h73l-320 -702l-329 702h75z" />
    <glyph glyph-name="W" unicode="W" horiz-adv-x="875" 
d="M76 686l230 -541l3 1l93 241l-128 299l62 -1l101 -220l95 220l58 1l-120 -295l104 -246h3l222 541h67l-286 -702l-143 330h-3l-131 -330l-296 702h69z" />
    <glyph glyph-name="Y" unicode="Y" horiz-adv-x="554" 
d="M86 686l199 -355h4l177 355h77l-349 -686h-81l138 258l-243 428h78z" />
    <glyph glyph-name="Z" unicode="Z" horiz-adv-x="558" 
d="M526 686l-395 -622h398v-64h-516l393 622h-359v64h479z" />
    <glyph glyph-name="bracketleft" unicode="[" horiz-adv-x="278" 
d="M35 686h164v-48h-111v-730h111v-48h-164v826z" />
    <glyph glyph-name="backslash" unicode="\" horiz-adv-x="278" 
d="M-16 702l364 -718h-55l-364 718h55z" />
    <glyph glyph-name="bracketright" unicode="]" horiz-adv-x="278" 
d="M243 -140h-164v48h111v730h-111v48h164v-826z" />
    <glyph glyph-name="asciicircum" unicode="^" 
d="M111 243h-64l253 459l253 -459h-64l-189 347z" />
    <glyph glyph-name="underscore" unicode="_" horiz-adv-x="500" 
d="M0 -125v74h500v-74h-500z" />
    <glyph glyph-name="grave" unicode="`" horiz-adv-x="273" 
d="M-14 652l31 58l208 -115l-26 -48z" />
    <glyph glyph-name="a" unicode="a" horiz-adv-x="460" 
d="M205 293q-30 0 -53.5 -10t-39.5 -26.5t-24.5 -38t-8.5 -44.5t8 -46t24 -42t41 -30.5t59 -11.5q33 0 58 10.5t42 27.5t25.5 39t8.5 46q0 23 -8.5 45.5t-25.5 40.5t-43.5 29t-62.5 11zM89 487q25 9 61 18t77 9q66 0 102.5 -21t53.5 -48t20 -53t3 -36v-356h-58v60h-3
q-26 -41 -65.5 -56.5t-78.5 -15.5q-37 0 -70.5 12.5t-59 36t-40.5 57.5t-15 76q0 44 16 77.5t42.5 56t59.5 34t67 11.5q35 0 74 -14t68 -49h2v76q0 43 -33 69.5t-87 26.5q-35 0 -69.5 -10t-62.5 -21l-29 -12z" />
    <glyph glyph-name="b" unicode="b" horiz-adv-x="598" 
d="M321 458q-42 0 -79 -15t-64.5 -43t-44 -66.5t-16.5 -84.5q0 -36 14 -73t39.5 -66t62 -47.5t81.5 -18.5q50 0 87.5 19.5t62.5 49.5t37.5 67t12.5 73q0 41 -14.5 78t-40 65.5t-61 45t-77.5 16.5zM115 405l3 1q20 32 45.5 53t53 33t54.5 17t50 5q56 0 103 -21t81 -57
t53 -82.5t19 -97.5q0 -57 -20.5 -106t-56.5 -85t-84 -56.5t-103 -20.5q-50 0 -96.5 18t-82.5 54.5t-58 92.5t-22 132v427h61v-307z" />
    <glyph glyph-name="c" unicode="c" horiz-adv-x="490" 
d="M423 404q-63 54 -141 54q-40 0 -76 -14.5t-63 -41.5t-43 -65t-16 -85q0 -38 12.5 -75t37.5 -66.5t63 -48t88 -18.5q79 0 136 53l37 -46q-25 -20 -49 -32.5t-46 -19.5t-42 -9t-36 -2q-66 0 -115.5 24t-82.5 61.5t-49.5 84.5t-16.5 94q0 53 20 100.5t55 83.5t84 57t106 21
q58 0 101 -18.5t73 -44.5z" />
    <glyph glyph-name="d" unicode="d" horiz-adv-x="602" 
d="M487 250q0 46 -15.5 84t-43 65.5t-65 43t-80.5 15.5q-45 0 -81.5 -17.5t-63 -46t-40.5 -65.5t-14 -76q0 -44 14.5 -82t41 -66.5t63.5 -44.5t82 -16q43 0 80 16.5t64 44.5t42.5 65.5t15.5 79.5zM548 712v-712h-61v84h-2q-41 -50 -93.5 -73t-103.5 -23q-58 0 -107 20.5
t-84.5 56.5t-55.5 84t-20 104q0 53 20.5 100.5t56 83t84 56.5t104.5 21q54 0 106 -25t93 -74h2v297h61z" />
    <glyph glyph-name="f" unicode="f" horiz-adv-x="312" 
d="M292 665q-11 2 -20.5 3.5t-20.5 1.5q-38 0 -60 -13t-32.5 -32.5t-13 -42t-2.5 -40.5v-40h142v-56h-142v-446h-61v446h-52v56h52v52q0 12 2.5 40t17.5 57.5t47.5 52t91.5 22.5q20 0 35.5 -2.5t29.5 -7.5z" />
    <glyph glyph-name="g" unicode="g" horiz-adv-x="491" 
d="M230 458q-38 0 -65 -12t-44 -30.5t-25.5 -40.5t-8.5 -42q0 -21 8 -44t25.5 -42.5t45 -32.5t67.5 -13q38 0 65 12.5t44 31.5t25 41t8 41q0 24 -9.5 47t-28 42t-45.5 30.5t-62 11.5zM434 469q-20 -4 -44 -4q-9 0 -16.5 0.5t-16.5 3.5v-4q29 -16 45 -36t24 -40t10 -37.5
t2 -28.5q0 -33 -9.5 -58t-25 -43t-35 -29.5t-38.5 -17.5v-4q56 -20 84 -66t28 -96q0 -32 -12 -66t-38 -62.5t-66.5 -46.5t-98.5 -18q-47 0 -83 12t-63.5 30t-46.5 40t-32 42l46 33q10 -16 26.5 -34t38.5 -33t51 -24.5t65 -9.5q40 0 68.5 12t46.5 31.5t26.5 44t8.5 50.5
q0 28 -10.5 53t-30 43t-47 28.5t-61.5 10.5q-39 0 -73 -8.5t-63 -24.5l25 70q-48 23 -71.5 62.5t-23.5 86.5q0 40 14.5 73.5t41.5 58t65.5 38t87.5 13.5q19 0 37 -1.5t33 -1.5q21 0 39.5 1.5t35.5 4.5t35.5 6.5t39.5 8.5z" />
    <glyph glyph-name="h" unicode="h" horiz-adv-x="506" 
d="M54 0v712h61v-273h2q18 25 40 40t43.5 23t41.5 10t35 2q35 0 66.5 -11t55.5 -32t38.5 -52.5t14.5 -72.5v-346h-61v327q0 40 -12.5 65.5t-31 40t-40.5 20t-41 5.5q-32 0 -59.5 -11t-48 -30.5t-32 -46.5t-11.5 -58v-312h-61z" />
    <glyph glyph-name="i" unicode="i" horiz-adv-x="212" 
d="M152 672l-46 -52l-46 52l46 52zM76 0v502h61v-502h-61z" />
    <glyph glyph-name="j" unicode="j" horiz-adv-x="211" 
d="M-80 -122q11 -3 21 -5t21 -2q44 0 67.5 17.5t33.5 43.5t11 54.5t1 51.5v464h61v-513q0 -60 -19 -94.5t-45 -52.5t-53.5 -22.5t-44.5 -4.5q-13 0 -32.5 2t-40.5 10zM151 672l-46 -52l-46 52l46 52z" />
    <glyph glyph-name="k" unicode="k" horiz-adv-x="453" 
d="M326 502h69l-217 -246l265 -256h-80l-248 244v-244h-61v712h61v-454z" />
    <glyph glyph-name="l" unicode="l" horiz-adv-x="201" 
d="M131 0h-61v712h61v-712z" />
    <glyph glyph-name="m" unicode="m" horiz-adv-x="779" 
d="M110 502v-79h3q23 45 62 68t86 23q17 0 37 -4t39.5 -13.5t36 -26.5t27.5 -44h2q31 50 74 69t85 19q73 0 118 -43.5t45 -116.5v-354h-61v339q0 36 -10 59t-25.5 36.5t-35.5 18.5t-40 5q-15 0 -37.5 -5t-44 -21.5t-36.5 -48t-15 -85.5v-298h-61v330q0 12 -1.5 33.5
t-12 42.5t-32.5 36.5t-62 15.5q-34 0 -59.5 -12.5t-42.5 -34.5t-25.5 -50.5t-8.5 -59.5v-301h-61v502h56z" />
    <glyph glyph-name="n" unicode="n" horiz-adv-x="508" 
d="M54 502h61v-82h2q3 5 13 20t30 31.5t50 29.5t72 13q33 0 64 -11.5t55 -34.5t38.5 -57.5t14.5 -79.5v-331h-61v331q0 65 -36 96t-87 31q-35 0 -63.5 -13.5t-49 -37t-31.5 -55.5t-11 -69v-283h-61v502z" />
    <glyph glyph-name="o" unicode="o" horiz-adv-x="566" 
d="M84 251q0 -42 16 -80t43 -66t63 -44.5t77 -16.5q42 0 78 16.5t63 45t42.5 66t15.5 79.5t-15.5 80t-42.5 66t-63.5 44.5t-77.5 16.5t-77 -16.5t-63 -44.5t-43 -65.5t-16 -80.5zM21 251q0 55 20.5 103t56.5 83.5t83.5 56t101.5 20.5t101.5 -20.5t83.5 -56t56.5 -83.5
t20.5 -103q0 -54 -20.5 -102t-56 -84t-83.5 -56.5t-102 -20.5t-102 20.5t-83.5 56.5t-56 84t-20.5 102z" />
    <glyph glyph-name="q" unicode="q" horiz-adv-x="602" 
d="M278 458q-45 0 -81 -16t-61 -44t-38.5 -66.5t-13.5 -83.5q0 -50 16.5 -88.5t43.5 -64t61.5 -38.5t70.5 -13q45 0 83.5 16.5t67 44.5t44.5 65t16 78q0 40 -15 77.5t-42.5 67t-66 47.5t-85.5 18zM548 502v-689h-61v279h-3q-20 -29 -45 -48.5t-52.5 -32t-56 -18t-55.5 -5.5
q-53 0 -99.5 19.5t-81 54.5t-54 83t-19.5 106t19.5 106.5t54 83.5t81.5 54t101 19q39 0 71 -9t57 -24.5t44.5 -36.5t33.5 -44h4v102h61z" />
    <glyph glyph-name="r" unicode="r" horiz-adv-x="336" 
d="M316 447q-20 7 -42 7q-32 0 -60.5 -15.5t-51 -42.5t-35.5 -63t-13 -77v-256h-61v502h58v-106h3q20 60 71 92.5t117 32.5q8 0 15.5 -0.5t15.5 -1.5z" />
    <glyph glyph-name="s" unicode="s" horiz-adv-x="384" 
d="M312 409q-17 16 -34.5 26t-33 15t-29.5 6.5t-24 1.5q-27 0 -46 -7.5t-30.5 -19t-17 -26.5t-5.5 -30q0 -28 12 -44t31.5 -26t44 -16t49.5 -13q18 -5 40 -14t41 -25t31.5 -40t12.5 -60q0 -34 -13 -61.5t-36.5 -47t-56.5 -30t-72 -10.5q-14 0 -32 2.5t-39 11t-43.5 23.5
t-44.5 40l40 43q8 -10 19.5 -21.5t26.5 -21t34.5 -15.5t42.5 -6q45 0 78 23.5t33 66.5q0 27 -11.5 44.5t-30.5 28.5t-43.5 18t-50.5 15q-17 5 -38.5 13.5t-40.5 24.5t-32 40.5t-13 60.5q0 24 9.5 48t29 43.5t49 31.5t70.5 12q37 0 77 -12t80 -48z" />
    <glyph glyph-name="t" unicode="t" horiz-adv-x="281" 
d="M72 625h61v-123h136v-56h-136v-312q0 -13 2 -29t10.5 -29.5t26.5 -22.5t51 -9q11 0 21 2t26 10v-58q-28 -10 -61 -10q-28 0 -53 7.5t-43.5 24.5t-29.5 44t-11 66v316h-54l1 56h53v123z" />
    <glyph glyph-name="u" unicode="u" horiz-adv-x="506" 
d="M115 502v-321q0 -13 2.5 -36t13.5 -45.5t35 -39t67 -16.5q54 0 85.5 22.5t47.5 57t20.5 75.5t4.5 77v226h61v-502h-61v75h-2q-17 -30 -39.5 -47.5t-45.5 -26.5t-43.5 -11t-34.5 -2q-7 0 -22.5 1t-35 6.5t-39.5 16.5t-37 30.5t-27.5 49.5t-10.5 73v337h61z" />
    <glyph glyph-name="v" unicode="v" horiz-adv-x="500" 
d="M251 128l176 374h67l-242 -514h-2l-242 514h62z" />
    <glyph glyph-name="w" unicode="w" horiz-adv-x="841" 
d="M235 -12h-2l-225 514h61l165 -371l187 383l187 -383l165 371h61l-225 -514h-2l-186 397z" />
    <glyph glyph-name="y" unicode="y" horiz-adv-x="517" 
d="M76 502l195 -354h4l169 354h63q-81 -176 -166.5 -350t-172.5 -339h-69l138 267l-230 422h69z" />
    <glyph glyph-name="z" unicode="z" horiz-adv-x="488" 
d="M57 502h410l-339 -446h322v-56h-444l337 446h-286v56z" />
    <glyph glyph-name="braceleft" unicode="{" horiz-adv-x="338" 
d="M66 299q12 2 24 8t22 20.5t16 40t6 66.5v154q0 38 11 60.5t26 34.5t32 15.5t29 3.5h17l24 -48h-26q-21 0 -33 -9t-18 -21t-7.5 -25.5t-1.5 -22.5v-157q0 -50 -19 -87.5t-49 -52.5v-1q16 -7 29 -22.5t21.5 -35.5t13 -42t4.5 -42v-156q0 -9 1.5 -22.5t7.5 -25.5t18 -21
t33 -9h26l-24 -48h-17q-12 0 -29 3.5t-32 15.5t-26 34.5t-11 60.5v153q0 42 -6.5 68t-16 40t-21.5 20t-24 8v42z" />
    <glyph glyph-name="bar" unicode="|" horiz-adv-x="222" 
d="M82 686h58v-686h-58v686z" />
    <glyph glyph-name="braceright" unicode="}" horiz-adv-x="338" 
d="M272 257q-12 -2 -24 -8t-21.5 -20t-16 -40t-6.5 -68v-153q0 -38 -11 -60.5t-26 -34.5t-32 -15.5t-29 -3.5h-17l-24 48h26q21 0 33 9t18 21t7.5 25.5t1.5 22.5v156q0 20 4.5 42t13 42t21 35.5t29.5 22.5v1q-30 15 -49 52.5t-19 87.5v157q0 9 -1.5 22.5t-7.5 25.5t-18 21
t-33 9h-26l24 48h17q12 0 29 -3.5t32 -15.5t26 -34.5t11 -60.5v-154q0 -41 6 -66.5t16 -40t22 -20.5t24 -8v-42z" />
    <glyph glyph-name="asciitilde" unicode="~" 
d="M531 275q-26 -42 -56.5 -64t-68.5 -22q-31 0 -56.5 11.5t-50.5 23.5q-35 17 -61.5 25t-48.5 8q-23 0 -45.5 -16t-38.5 -56l-36 42q7 15 18.5 30.5t26.5 28t35 20t45 7.5q31 0 61 -11.5t65 -27.5q27 -12 48.5 -20.5t38.5 -8.5q15 0 28.5 7t24.5 17.5t20 23.5t15 24z" />
    <glyph glyph-name="quotesinglbase" unicode="&#x201a;" horiz-adv-x="229" 
d="M44 -116l13 16q17 21 27.5 34.5t16 22.5t7.5 13.5t2 7.5q0 12 -9 23.5t-14 14.5l-9 7l41 40l9 -9q14 -14 26.5 -30.5t12.5 -36.5q0 -18 -18 -42t-58 -66l-17 -18z" />
    <glyph glyph-name="quotedblbase" unicode="&#x201e;" horiz-adv-x="333" 
d="M50 -116l17 20q16 18 25.5 30.5t14.5 20.5t7 13t2 10q0 14 -6 21.5t-18 17.5l-7 6l41 40l8 -8q17 -17 28 -33.5t11 -34.5q0 -16 -18.5 -40.5t-63.5 -73.5l-11 -12zM187 -116l13 16q17 21 27.5 34.5t16 22.5t7.5 13.5t2 7.5q0 12 -9 23.5t-14 14.5l-9 7l41 40l9 -9
q14 -14 26.5 -30.5t12.5 -36.5q0 -18 -18 -42t-58 -66l-17 -18z" />
    <glyph glyph-name="ellipsis" unicode="&#x2026;" horiz-adv-x="1000" 
d="M833 112l52 -59l-52 -59l-52 59zM500 112l52 -59l-52 -59l-52 59zM167 112l52 -59l-52 -59l-52 59z" />
    <glyph glyph-name="dagger" unicode="&#x2020;" horiz-adv-x="500" 
d="M221 440h-155v50h155v196h58v-196h155v-50h-155v-624h-58v624z" />
    <glyph glyph-name="daggerdbl" unicode="&#x2021;" horiz-adv-x="500" 
d="M221 142h-155v50h155v248h-155v50h155v196h58v-196h155v-50h-155v-248h155v-50h-155v-326h-58v326z" />
    <glyph glyph-name="circumflex" unicode="&#x2c6;" horiz-adv-x="275" 
d="M311 578l-66 -22l-105 71h-4l-105 -71l-66 22l173 123z" />
    <glyph glyph-name="perthousand" unicode="&#x2030;" horiz-adv-x="1228" 
d="M1122 170q0 25 -10 47.5t-26.5 39t-39 26.5t-47.5 10q-26 0 -48 -10t-39 -27t-26.5 -39t-9.5 -47t9.5 -47t26.5 -39t39 -27t48 -10q25 0 47.5 10t39 26.5t26.5 39t10 47.5zM828 170q0 35 13.5 66t36.5 54.5t54 37t67 13.5q35 0 66 -13.5t54.5 -37t37 -54.5t13.5 -66
q0 -36 -13.5 -67t-37 -54t-54.5 -36.5t-66 -13.5q-36 0 -67 13.5t-54 36.5t-36.5 54t-13.5 67zM336 514q0 25 -10 47.5t-26.5 39.5t-39 26.5t-47.5 9.5q-26 0 -48 -10t-39 -26.5t-26.5 -39t-9.5 -47.5t9.5 -47.5t26.5 -39t39 -26.5t48 -10q25 0 47.5 9.5t39 26.5t26.5 39
t10 48zM630 686l-397 -702h-49l337 580l-2 2q-23 -15 -41.5 -20.5t-43.5 -5.5q-17 0 -30.5 5.5t-24.5 13.5l-2 -2q3 -8 5 -17t2 -26q0 -35 -14 -66.5t-37.5 -54.5t-54.5 -36.5t-65 -13.5q-36 0 -67 13.5t-54 37t-36.5 54.5t-13.5 66q0 36 13.5 67t36.5 54t54 36.5t67 13.5
q73 0 123 -53l4 -3l17.5 -15t23 -17.5t28.5 -14.5t36 -6q41 0 74 31t60 79h51zM727 170q0 25 -10 47.5t-26.5 39t-39 26.5t-47.5 10q-26 0 -48 -10t-39 -27t-26.5 -39t-9.5 -47t9.5 -47t26.5 -39t39 -27t48 -10q25 0 47.5 10t39 26.5t26.5 39t10 47.5zM433 170q0 35 13.5 66
t36.5 54.5t54 37t67 13.5q35 0 66 -13.5t54.5 -37t37 -54.5t13.5 -66q0 -36 -13.5 -67t-37 -54t-54.5 -36.5t-66 -13.5q-36 0 -67 13.5t-54 36.5t-36.5 54t-13.5 67z" />
    <glyph glyph-name="quoteleft" unicode="&#x2018;" horiz-adv-x="222" 
d="M98 489q-29 17 -41.5 36t-12.5 36q0 13 6 27.5t14.5 29t19 28t19.5 25.5l23 31l34 -19l-17 -25q-13 -19 -25.5 -38t-12.5 -36q0 -10 9.5 -22.5t26.5 -17.5z" />
    <glyph glyph-name="quoteright" unicode="&#x2019;" horiz-adv-x="222" 
d="M62 509l12 17q26 37 34.5 53t8.5 26t-8 21t-28 22l43 54q24 -14 39 -32.5t15 -39.5q0 -27 -19.5 -55.5t-37.5 -52.5l-25 -33z" />
    <glyph glyph-name="quotedblleft" unicode="&#x201c;" horiz-adv-x="333" 
d="M283 679l-20 -25q-24 -30 -35 -45.5t-11 -27.5q0 -11 9.5 -23t22.5 -19l-41 -39q-20 14 -34 34t-14 38q0 25 23 52.5t55 61.5l15 16zM146 679l-20 -25q-24 -30 -35 -45.5t-11 -27.5q0 -11 9.5 -23t22.5 -19l-41 -39q-20 14 -34 33.5t-14 38.5q0 13 7 27t18 28t25 29
l28 30l15 16z" />
    <glyph glyph-name="quotedblright" unicode="&#x201d;" horiz-adv-x="333" 
d="M50 523l20 25q24 30 35 45.5t11 27.5q0 11 -9.5 23t-22.5 19l41 39q18 -14 33 -34t15 -38q0 -20 -21 -48t-57 -66l-15 -16zM187 523l19 23q28 34 37.5 50t9.5 25q0 11 -9.5 23t-22.5 19l41 39q18 -14 33 -34t15 -38q0 -20 -21 -48t-57 -66l-15 -16z" />
    <glyph glyph-name="bullet" unicode="&#x2022;" horiz-adv-x="499" 
d="M421 343q0 -36 -13.5 -67t-36.5 -54.5t-54 -37t-67 -13.5t-67.5 13.5t-54.5 37t-36.5 54.5t-13.5 67q0 35 13 66t36 54.5t54.5 37t68.5 13.5q36 0 67 -13.5t54 -37t36.5 -54.5t13.5 -66z" />
    <glyph glyph-name="endash" unicode="&#x2013;" 
d="M49 222v58h502v-58h-502z" />
    <glyph glyph-name="emdash" unicode="&#x2014;" horiz-adv-x="650" 
d="M0 276h650v-50h-650v50z" />
    <glyph glyph-name="tilde" unicode="&#x2dc;" horiz-adv-x="273" 
d="M-44 608q35 41 65.5 53t56.5 12q33 0 62 -13q16 -8 30 -15.5t30 -7.5q15 0 31.5 8t29.5 25l59 -25q-9 -11 -22 -22.5t-28 -21t-32 -15.5t-35 -6q-21 0 -37.5 6t-31.5 14q-13 6 -26.5 11t-29.5 5q-23 0 -39 -11.5t-24 -21.5z" />
    <glyph glyph-name="trademark" unicode="&#x2122;" horiz-adv-x="978" 
d="M504 702l170 -326l163 326l111 -437l-62 -12l-67 287l-149 -296l-150 296l-64 -287l-62 12zM80 630l11 56h308v-56h-125v-365l-63 -12v377h-131z" />
    <glyph glyph-name="currency" unicode="&#xa4;" horiz-adv-x="539" 
d="M271 160q39 0 73 15t59.5 41.5t40.5 61t15 73.5q0 38 -15 72.5t-40.5 60.5t-59.5 41t-72 15q-39 0 -74 -15t-61.5 -41t-42 -61t-15.5 -74t15.5 -73.5t42 -60t61 -40.5t73.5 -15zM74 198q-18 22 -28.5 43.5t-16 41.5t-7 37t-1.5 29q0 55 16.5 92t38.5 61l-56 57l40 40
l57 -55q22 18 45 29t44 16.5t38 7t28 1.5q10 0 26 -1.5t36.5 -7t42.5 -16.5t44 -29l56 56l42 -42l-55 -54q17 -21 35 -58.5t18 -94.5q0 -31 -5.5 -55.5t-13.5 -43.5t-17 -32.5t-16 -22.5l53 -56l-40 -40l-54 58q-38 -33 -78.5 -45t-74.5 -12q-31 0 -74.5 11t-82.5 46
l-54 -58l-40 40z" />
    <glyph glyph-name="section" unicode="&#xa7;" horiz-adv-x="473" 
d="M283 126q37 11 57.5 37.5t20.5 61.5q0 19 -9.5 32.5t-20.5 24.5l-140 136q-25 -8 -41 -19t-25 -23t-12.5 -23.5t-3.5 -20.5q0 -19 9.5 -38t23.5 -33zM354 564q-6 16 -17 32.5t-26 29.5t-33.5 21t-40.5 8q-40 0 -61.5 -23t-21.5 -54q0 -29 19 -51.5t48 -50.5l141 -135
q21 -20 40 -49t19 -69q0 -19 -6.5 -39t-19.5 -38.5t-32.5 -33.5t-46.5 -24l11 -11q25 -25 43.5 -52.5t18.5 -69.5q0 -17 -7 -41t-25 -45.5t-48.5 -37t-77.5 -15.5q-53 0 -94 28.5t-64 76.5l50 28q14 -41 47 -63t73 -22q19 0 34.5 7t26.5 18.5t16.5 25t5.5 27.5q0 21 -8.5 40
t-21.5 36t-27.5 32t-27.5 27l-114 110q-14 13 -27 27.5t-24 32t-17.5 38.5t-6.5 47q0 36 24 68.5t81 54.5l-14 14q-20 20 -36 41t-16 56q0 24 8.5 48.5t26.5 44t45.5 32t66.5 12.5q54 0 98.5 -30.5t68.5 -84.5z" />
    <glyph glyph-name="copyright" unicode="&#xa9;" horiz-adv-x="794" 
d="M528 472q-17 14 -48 30.5t-73 16.5q-34 0 -64 -12.5t-53 -35t-36.5 -55t-13.5 -71.5t13 -71.5t36 -56t54 -36t67 -12.5q29 0 59.5 10.5t56.5 35.5l35 -42q-23 -19 -44 -30t-40 -17t-35.5 -7.5t-31.5 -1.5q-57 0 -99.5 20t-71 52.5t-43 73.5t-14.5 82q0 46 17 87t47 72
t72 49t92 18q51 0 88.5 -16.5t63.5 -39.5zM703 344q0 64 -23 120t-63.5 97.5t-96 65t-119.5 23.5q-65 0 -120.5 -23.5t-96.5 -65t-64 -97.5t-23 -120q0 -63 22 -119t62 -98t96 -66.5t124 -24.5q67 0 123 24.5t95.5 66.5t61.5 98t22 119zM401 702q73 0 138.5 -28t114.5 -76.5
t78 -114t29 -139.5q0 -75 -29 -140.5t-78 -114.5t-114.5 -77t-138.5 -28q-74 0 -140 28.5t-115.5 77t-78 114t-28.5 140.5q0 74 28.5 139t78 114t115.5 77t140 28z" />
    <glyph glyph-name="guillemotleft" unicode="&#xab;" horiz-adv-x="444" 
d="M358 390l34 -32l-110 -107l110 -107l-34 -32l-140 139zM214 390l34 -32l-110 -107l110 -107l-34 -32l-140 139z" />
    <glyph glyph-name="logicalnot" unicode="&#xac;" 
d="M493 321h-444v58h502v-280h-58v222z" />
    <glyph glyph-name="hyphen" unicode="-" horiz-adv-x="333" 
d="M294 224h-255v54h255v-54z" />
    <glyph glyph-name="hyphen" unicode="&#xad;" horiz-adv-x="333" 
d="M294 224h-255v54h255v-54z" />
    <glyph glyph-name="registered" unicode="&#xae;" horiz-adv-x="815" 
d="M333 351h58q52 0 81 25t29 60q0 13 -4.5 27.5t-16.5 27t-32 20.5t-50 8h-65v-168zM392 569q46 0 77.5 -12.5t50.5 -32t27.5 -42.5t8.5 -44q0 -24 -9 -45.5t-25.5 -39t-40.5 -28.5t-54 -12l145 -162l-46 -31l-190 219h-3v-208l-54 -11v449h113zM703 344q0 64 -23 120
t-63.5 97.5t-96 65t-119.5 23.5q-65 0 -120.5 -23.5t-96.5 -65t-64 -97.5t-23 -120q0 -63 22 -119t62 -98t96 -66.5t124 -24.5q67 0 123 24.5t95.5 66.5t61.5 98t22 119zM401 -16q-74 0 -140 28.5t-115.5 77t-78 114t-28.5 140.5q0 74 28.5 139t78 114t115.5 77t140 28
q73 0 138.5 -28t114.5 -76.5t78 -114t29 -139.5q0 -75 -29 -140.5t-78 -114.5t-114.5 -77t-138.5 -28z" />
    <glyph glyph-name="degree" unicode="&#xb0;" horiz-adv-x="400" 
d="M200 416q-30 0 -56 11t-45.5 30.5t-31 45.5t-11.5 56t11.5 56t31 45.5t45.5 30.5t56 11t56 -11t45.5 -30.5t31 -45.5t11.5 -56t-11.5 -56t-31 -45.5t-45.5 -30.5t-56 -11zM104 559q0 -17 5.5 -33.5t17.5 -30.5t30 -22.5t43 -8.5t43 8.5t30 22.5t17.5 30.5t5.5 33.5
q0 16 -5.5 33t-17.5 31t-30 22.5t-43 8.5t-43 -8.5t-30 -22.5t-17.5 -31t-5.5 -33z" />
    <glyph glyph-name="plusminus" unicode="&#xb1;" 
d="M49 58h502v-58h-502v58zM271 502h58v-172h222v-58h-222v-175h-58v175h-222v58h222v172z" />
    <glyph glyph-name="mu" unicode="&#xb5;" horiz-adv-x="506" 
d="M115 502v-320q0 -17 1.5 -35t7.5 -35t19 -32t36 -25q23 -11 54 -11q56 0 87.5 23t47.5 58t19.5 75.5t3.5 75.5v226h61v-502h-61v75h-2q-15 -29 -35 -46t-41.5 -26t-42.5 -12t-38 -3q-26 0 -55.5 5.5t-61.5 29.5v-199h-61v678h61z" />
    <glyph glyph-name="paragraph" unicode="&#xb6;" 
d="M266 313q-42 0 -79.5 13.5t-65 38t-43.5 58.5t-16 74q0 36 11.5 70t37.5 60.5t68 42.5t103 16h223v-869h-58v821h-123v-821h-58v496z" />
    <glyph glyph-name="glyph113" unicode="&#xb7;" horiz-adv-x="300" 
d="M149 201q-17 0 -33 12.5t-16 37.5t16.5 37.5t32.5 12.5q20 0 35.5 -15t15.5 -35t-15.5 -35t-35.5 -15z" />
    <glyph glyph-name="guillemotright" unicode="&#xbb;" horiz-adv-x="444" 
d="M86 112l-34 32l110 107l-110 107l34 32l140 -139zM230 112l-34 32l110 107l-110 107l34 32l140 -139z" />
    <glyph glyph-name="guilsinglleft" unicode="&#x2039;" horiz-adv-x="278" 
d="M192 390l34 -32l-110 -107l110 -107l-34 -32l-140 139z" />
    <glyph glyph-name="guilsinglright" unicode="&#x203a;" horiz-adv-x="278" 
d="M86 112l-34 32l110 107l-110 107l34 32l140 -139z" />
    <glyph glyph-name="quotedbl" unicode="&#x22;" horiz-adv-x="333" 
d="M198 686h58v-271h-58v271zM78 686h58v-271h-58v271z" />
    <glyph glyph-name="exclam" unicode="!" horiz-adv-x="222" 
d="M105 112l52 -59l-52 -59l-52 59zM138 176l-57 -6l-5 542l67 11z" />
    <glyph glyph-name="e" unicode="e" horiz-adv-x="552" 
d="M283 44q51 0 94 24.5t70 65.5h71q-16 -32 -40.5 -59t-54.5 -46.5t-65.5 -30t-74.5 -10.5q-54 0 -102 20.5t-83.5 56.5t-56 84t-20.5 102q0 55 19 103t53 83.5t80 56t100 20.5q61 0 109 -20.5t81 -56t50 -83.5t17 -103h-446q0 -42 16 -80t43 -66t63 -44.5t77 -16.5z
M460 306q-5 33 -20.5 60.5t-39.5 48t-56.5 32t-70.5 11.5q-34 0 -63.5 -11.5t-52.5 -32t-40 -48t-26 -60.5h369z" />
    <glyph glyph-name="A" unicode="A" horiz-adv-x="730" 
d="M475 333l-113 229l-114 -229h227zM641 0l-134 269h-291l-133 -269h-69l349 702h2l349 -702h-73z" />
    <glyph glyph-name="E" unicode="E" horiz-adv-x="505" 
d="M74 0v686h376v-64h-309v-242h275v-64h-275v-252h309v-64h-376z" />
    <glyph glyph-name="H" unicode="H" horiz-adv-x="691" 
d="M141 686v-310h409v310h67v-686h-67v312h-409v-312h-67v686h67z" />
    <glyph glyph-name="K" unicode="K" horiz-adv-x="546" 
d="M141 0h-67v686h67v-318l277 318h83l-278 -321l314 -365h-89l-307 356v-356z" />
    <glyph glyph-name="T" unicode="T" horiz-adv-x="448" 
d="M256 0h-67v622h-174v64h419v-64h-178v-622z" />
    <glyph glyph-name="X" unicode="X" horiz-adv-x="635" 
d="M108 686l198 -266l2 -1l191 267h83l-235 -323l277 -363h-85l-230 307h-2l-221 -307h-81l263 363l-239 323h79z" />
    <glyph glyph-name="p" unicode="p" horiz-adv-x="601" 
d="M316 458q-44 0 -81 -17.5t-63.5 -46.5t-41.5 -67t-15 -79q0 -45 17.5 -82.5t46.5 -64.5t66.5 -42t76.5 -15q40 0 75.5 14.5t62 41.5t42 64.5t15.5 83.5q0 47 -15 85.5t-41.5 66.5t-63.5 43t-81 15zM115 502v-102h4q35 57 86 85.5t116 28.5q59 0 107 -20t81.5 -55.5
t52 -83.5t18.5 -104q0 -58 -20 -106t-54.5 -83t-80.5 -54.5t-99 -19.5q-27 0 -55.5 5.5t-56 18t-52.5 32t-44 48.5h-3v-279h-61v689h61z" />
    <glyph glyph-name="x" unicode="x" horiz-adv-x="485" 
d="M85 502l150 -200h4l146 200h74l-181 -244l199 -258h-84l-155 209h-4l-148 -209h-82l195 256l-188 246h74z" />
    <glyph glyph-name="hyphenminus" horiz-adv-x="333" 
d="M294 224h-255v54h255v-54z" />
    <glyph glyph-name="quilsinglleft" horiz-adv-x="278" 
d="M192 390l34 -32l-110 -107l110 -107l-34 -32l-140 139z" />
    <glyph glyph-name="quilsinglright" horiz-adv-x="278" 
d="M86 112l-34 32l110 107l-110 107l34 32l140 -139z" />
    <glyph glyph-name="afii10062" unicode="&#x40e;" horiz-adv-x="591" 
d="M242 109q-9 -18 -23.5 -30t-30.5 -18.5t-32.5 -9.5t-29.5 -3q-19 0 -38.5 6t-36.5 17l-34 -54q34 -21 62.5 -27t49.5 -6q62 0 106.5 25.5t65.5 68.5l273 608h-70l-192 -426h-6l-217 426h-72l260 -505zM192 824q17 -32 44 -48.5t58 -16.5q30 0 57.5 16.5t43.5 48.5l48 -20
q-15 -35 -37.5 -54t-44.5 -28.5t-40.5 -11.5t-26.5 -2q-31 0 -55 8.5t-42 22.5t-31 31t-21 34z" />
    <glyph glyph-name="afii10110" unicode="&#x45e;" horiz-adv-x="543" 
d="M201 -72q-11 -23 -35.5 -40t-67.5 -17q-11 0 -21 2t-21 5l-19 -51q21 -8 40.5 -10t32.5 -2t31.5 2.5t39 10.5t39.5 23.5t33 42.5q73 148 138.5 301t136.5 307h-65l-171 -382h-4l-198 382h-70l236 -455zM181 687q13 -25 37 -43t59 -18t59 18t37 43l44 -18
q-19 -42 -55.5 -66.5t-84.5 -24.5q-29 0 -52 8.5t-40 21.5t-29 29.5t-19 31.5z" />
    <glyph glyph-name="afii10050" unicode="&#x490;" horiz-adv-x="419" 
d="M74 0v686h267v70h67v-134h-267v-622h-67z" />
    <glyph glyph-name="brokenbar" unicode="&#xa6;" horiz-adv-x="222" 
d="M82 280h58v-290h-58v290zM82 686h58v-290h-58v290z" />
    <glyph glyph-name="afii10023" unicode="&#x401;" horiz-adv-x="498" 
d="M362 826l45 -53l-45 -53l-43 53zM188 826l45 -53l-45 -53l-43 53zM74 0v686h375v-64h-308v-242h275v-64h-275v-252h308v-64h-375z" />
    <glyph glyph-name="afii10053" unicode="&#x404;" horiz-adv-x="583" 
d="M541 584q-11 8 -26.5 17.5t-36 17.5t-45.5 13.5t-55 5.5q-56 0 -104 -18t-84 -51.5t-58.5 -81.5t-25.5 -107h320v-64h-320q4 -58 27 -107t60 -85t85.5 -56t104.5 -20q45 0 85 15.5t73 35.5l-10 -83q-39 -17 -84 -24.5t-78 -7.5q-66 0 -127.5 26t-108.5 73.5t-75 114
t-28 147.5q0 76 26.5 141.5t73.5 113.5t110.5 75t137.5 27q48 0 86 -10t66 -22z" />
    <glyph glyph-name="afii10056" unicode="&#x407;" horiz-adv-x="215" 
d="M70 686h67v-686h-67v686zM165 813l50 -47l-50 -47l-47 47zM47 813l50 -47l-50 -47l-47 47z" />
    <glyph glyph-name="afii10055" horiz-adv-x="227" 
d="M80 686l67 8v-694l-67 -8v694z" />
    <glyph glyph-name="afii10103" unicode="&#x456;" horiz-adv-x="212" 
d="M152 672l-46 -52l-46 52l46 52zM76 0v502h61v-502h-61z" />
    <glyph glyph-name="afii10098" unicode="&#x491;" horiz-adv-x="344" 
d="M272 502v66h61v-122h-218v-446h-61v502h218z" />
    <glyph glyph-name="afii10071" unicode="&#x451;" horiz-adv-x="551" 
d="M91 306q9 33 26 60.5t40 48t52.5 32t63.5 11.5q38 0 70.5 -11.5t56.5 -32t39.5 -48t20.5 -60.5h-369zM283 44q-41 0 -77 16.5t-63 44.5t-43 66t-16 80h446q0 55 -17 103t-50 83.5t-81 56t-109 20.5q-54 0 -100 -20.5t-80 -56t-53 -83.5t-19 -103q0 -54 20.5 -102t56 -84
t83.5 -56.5t102 -20.5q39 0 74.5 10.5t65.5 30t54.5 46.5t40.5 59h-71q-27 -41 -70 -65.5t-94 -24.5zM359 678l45 -53l-45 -53l-43 53zM185 678l45 -53l-45 -53l-43 53z" />
    <glyph glyph-name="numero" unicode="&#x2116;" horiz-adv-x="1113" 
d="M548 157h4v529h67v-702l-475 546l-3 -1v-529h-67v702zM719 70v58h315v-58h-315zM984 413q0 24 -9 44.5t-24 36t-35.5 24t-43.5 8.5q-24 0 -44.5 -9t-35.5 -24t-23.5 -35.5t-8.5 -44.5q0 -48 32 -80t80 -32q23 0 43.5 8.5t35.5 23.5t24 35.5t9 44.5zM705 413q0 34 13 64.5
t36 53t53 35.5t65 13q34 0 64.5 -13t53 -35.5t36 -52.5t13.5 -65t-13.5 -65.5t-36.5 -52.5t-53 -34.5t-64 -12.5t-64.5 12.5t-53 35t-36 52.5t-13.5 65z" />
    <glyph glyph-name="afii10101" unicode="&#x454;" horiz-adv-x="499" 
d="M85 226q3 -41 19.5 -74.5t43 -57.5t61 -37t74.5 -13q50 0 89 16.5t66 36.5l29 -47q-52 -38 -97.5 -50t-81.5 -12q-58 0 -106.5 19t-84 53.5t-55.5 83t-20 106.5q0 60 21.5 109t58 83.5t85.5 53t105 18.5q35 0 82.5 -12.5t94.5 -46.5l-36 -47q-32 25 -68.5 37.5
t-73.5 12.5t-71.5 -11t-62 -33.5t-47 -55.5t-25.5 -76h268v-56h-268z" />
    <glyph glyph-name="afii10054" unicode="&#x405;" horiz-adv-x="487" 
d="M83 147q22 -43 62.5 -71t94.5 -28q31 0 57.5 9.5t45.5 26t30 39.5t11 50q0 39 -17 63.5t-44.5 41t-63 28.5t-71.5 26q-24 9 -49.5 23t-46 35.5t-33.5 51.5t-13 71t15.5 75.5t43.5 60t66 39.5t83 14q63 0 108.5 -26t74.5 -60l-49 -52q-21 31 -55 52.5t-80 21.5
q-62 0 -98.5 -36t-36.5 -91q0 -31 13 -52.5t33 -36.5t44.5 -25t48.5 -18q31 -11 66.5 -25t64.5 -37t48.5 -57.5t19.5 -85.5q0 -37 -14 -71.5t-41.5 -60.5t-68 -42t-92.5 -16q-19 0 -45 3.5t-54.5 16t-57 36t-52.5 63.5z" />
    <glyph glyph-name="afii10102" unicode="&#x455;" horiz-adv-x="384" 
d="M312 409q-17 16 -34.5 26t-33 15t-29.5 6.5t-24 1.5q-27 0 -46 -7.5t-30.5 -19t-17 -26.5t-5.5 -30q0 -28 12 -44t31.5 -26t44 -16t49.5 -13q18 -5 40 -14t41 -25t31.5 -40t12.5 -60q0 -34 -13 -61.5t-36.5 -47t-56.5 -30t-72 -10.5q-14 0 -32 2.5t-39 11t-43.5 23.5
t-44.5 40l40 43q8 -10 19.5 -21.5t26.5 -21t34.5 -15.5t42.5 -6q45 0 78 23.5t33 66.5q0 27 -11.5 44.5t-30.5 28.5t-43.5 18t-50.5 15q-17 5 -38.5 13.5t-40.5 24.5t-32 40.5t-13 60.5q0 24 9.5 48t29 43.5t49 31.5t70.5 12q37 0 77 -12t80 -48z" />
    <glyph glyph-name="afii10104" unicode="&#x457;" horiz-adv-x="185" 
d="M103 672l46 52l46 -52l-46 -52zM-10 672l46 52l46 -52l-46 -52zM60 0v502h61v-502h-61z" />
    <glyph glyph-name="afii10052" unicode="&#x403;" horiz-adv-x="404" 
d="M327 893l38 -62l-236 -101l-29 48zM74 0v686h307v-64h-240v-622h-67z" />
    <glyph glyph-name="afii10100" unicode="&#x453;" horiz-adv-x="340" 
d="M286 710l35 -64l-215 -104l-26 49zM323 502v-56h-208v-446h-61v502h269z" />
    <glyph glyph-name="afii10061" unicode="&#x40c;" horiz-adv-x="559" 
d="M374 900l35 -64l-215 -104l-26 49zM141 0h-67v686h67v-318l276 318h87l-278 -321l314 -365h-92l-307 356v-356z" />
    <glyph glyph-name="afii10109" unicode="&#x45c;" horiz-adv-x="451" 
d="M115 0h-61v502h61v-238l213 238h72l-221 -240l262 -262h-81l-245 250v-250zM323 710l35 -64l-215 -104l-26 49z" />
    <glyph glyph-name="uni0406" unicode="&#x406;" horiz-adv-x="227" 
d="M80 686l67 -1v-685h-67v686z" />
    <glyph glyph-name="Euro" unicode="&#x20ac;" horiz-adv-x="664" 
d="M451 223h-259q17 -38 44 -70.5t62 -55.5t76.5 -36t86.5 -13q30 0 71 12.5t80 42.5l-10 -87q-30 -13 -69.5 -22.5t-87.5 -9.5q-63 0 -115.5 19.5t-94 52.5t-71 76t-46.5 91h-88l40 58h32q-6 31 -6 64q0 14 1 28t3 28h-70l40 58h45q18 51 50.5 95.5t76.5 77.5t99 51.5
t117 18.5q29 0 69 -6t79 -26l11 -86q-36 28 -76.5 41t-83.5 13q-53 0 -96 -14.5t-76 -39t-57 -57t-38 -68.5h301l-40 -58h-277q-6 -32 -6 -61q0 -31 6 -59h317z" />
    <glyph glyph-name="afii10051" unicode="&#x402;" horiz-adv-x="641" 
d="M243 624v-146q24 7 42 11.5t33.5 7t29.5 3.5t29 1q77 0 121.5 -24t66.5 -61.5t27.5 -83.5t5.5 -89q0 -74 -18 -124t-46 -80t-63 -42.5t-69 -12.5q-11 0 -32 1t-45 8l-11 70q19 -6 40 -10.5t41 -4.5q23 0 46.5 8.5t42 29.5t30.5 57.5t12 92.5q0 42 -4.5 78.5t-20 63.5
t-45.5 43t-80 16q-29 0 -62 -5.5t-71 -18.5v-413h-67v624h-161v62h429v-62h-201z" />
    <glyph glyph-name="afii10058" unicode="&#x409;" horiz-adv-x="891" 
d="M617 64h15q69 0 113 34.5t44 97.5q0 48 -19 74.5t-45.5 39t-53.5 15.5t-43 3h-131zM467 392h155q73 0 119.5 -19.5t73 -49t36.5 -64.5t10 -65q0 -28 -10 -62t-37 -63t-73.5 -49t-119.5 -20h-51l-246 552l-241 -552h-79l321 702z" />
    <glyph glyph-name="afii10059" unicode="&#x40a;" horiz-adv-x="953" 
d="M597 64h101q74 0 115.5 35.5t41.5 96.5q0 24 -7 47t-25 41t-49 29.5t-80 11.5h-97v-261zM141 686v-297h389v297h67v-297h91q73 0 119.5 -19t73 -48.5t36.5 -63.5t10 -64q0 -33 -12 -67.5t-39.5 -62.5t-73.5 -46t-115 -18h-157v325h-389v-325h-67v686h67z" />
    <glyph glyph-name="afii10060" unicode="&#x40b;" horiz-adv-x="644" 
d="M243 478q48 14 80.5 18.5t63.5 4.5q77 0 119 -21.5t61.5 -53.5t23 -69.5t3.5 -69.5v-287h-67v282q0 27 -3 54.5t-17 50t-42.5 36.5t-78.5 14q-29 0 -67 -5.5t-76 -18.5v-413h-67v622h-161v64h429v-64h-201v-144z" />
    <glyph glyph-name="afii10145" unicode="&#x40f;" horiz-adv-x="667" 
d="M593 686v-686h-226v-150h-67v150h-226v686h67v-622h385v622h67z" />
    <glyph glyph-name="afii10099" unicode="&#x452;" horiz-adv-x="586" 
d="M193 712v-70h199v-60h-199v-141h2q17 24 37.5 38.5t40.5 22t38 10t29 2.5q33 0 67 -10t61.5 -37.5t45.5 -76t18 -125.5q0 -81 -12 -145t-32.5 -114t-47.5 -89.5t-58 -72.5l-14 -15l-50 31l14 15q26 28 51 61.5t44 78.5t30.5 105t11.5 141q0 27 -3.5 61t-16.5 64t-38.5 51
t-68.5 21q-28 0 -54.5 -8.5t-47.5 -27.5t-34 -48t-13 -70v-304h-61v582h-78v60h78v70h61z" />
    <glyph glyph-name="afii10106" unicode="&#x459;" horiz-adv-x="662" 
d="M442 56h8q30 0 52.5 8.5t37.5 22.5t22.5 31.5t7.5 36.5t-7 37t-22.5 32t-39 23t-56.5 9h-94zM326 312h128q47 0 81 -14.5t56 -37t32.5 -50.5t10.5 -55q0 -29 -11.5 -57t-34.5 -49.5t-58 -35t-83 -13.5h-51l-161 366l-159 -366h-72l231 514z" />
    <glyph glyph-name="afii10107" unicode="&#x45a;" horiz-adv-x="778" 
d="M449 56h103q38 0 62 10t38 24t19.5 30.5t5.5 29.5q0 18 -7 35.5t-22.5 31t-39 21.5t-56.5 8h-103v-190zM449 502v-200h111q44 0 77.5 -13t56.5 -34t34.5 -48.5t11.5 -56.5q0 -21 -8.5 -47t-30 -49t-57.5 -38.5t-91 -15.5h-165v246h-273v-246h-61v502h61v-200h273v200h61z
" />
    <glyph glyph-name="afii10108" unicode="&#x45b;" horiz-adv-x="579" 
d="M193 712v-70h199v-60h-199v-141h2q9 13 21.5 26t30.5 23.5t41.5 17t54.5 6.5q34 0 67.5 -7.5t60 -27t43 -54t16.5 -88.5v-337h-61v350q0 27 -10 47t-27 33.5t-40 20.5t-50 7q-28 0 -55 -9t-48 -26.5t-33.5 -42t-12.5 -55.5v-325h-61v582h-78v60h78v70h61z" />
    <glyph glyph-name="afii10193" unicode="&#x45f;" horiz-adv-x="501" 
d="M447 502v-502h-166v-127h-61v127h-166v502h61v-446h271v446h61z" />
    <glyph glyph-name="afii10057" unicode="&#x408;" horiz-adv-x="403" 
d="M329 686v-517q0 -40 -11.5 -74t-34.5 -58.5t-57 -38.5t-79 -14q-25 0 -58.5 8t-75.5 40l34 54q20 -17 45.5 -27.5t51.5 -10.5q18 0 39 5.5t38.5 20.5t29 41t11.5 68v503h67z" />
    <glyph glyph-name="afii10105" unicode="&#x458;" horiz-adv-x="205" 
d="M-80 -122q11 -3 21 -5t21 -2q44 0 67.5 17.5t33.5 43.5t11 54.5t1 51.5v464h61v-513q0 -60 -19 -94.5t-45 -52.5t-53.5 -22.5t-44.5 -4.5q-13 0 -32.5 2t-40.5 10z" />
    <glyph glyph-name="afii10017" unicode="&#x410;" horiz-adv-x="730" 
d="M475 333l-113 229l-114 -229h227zM641 0l-134 269h-291l-133 -269h-69l349 702h2l349 -702h-73z" />
    <glyph glyph-name="afii10018" unicode="&#x411;" horiz-adv-x="528" 
d="M141 64h111q46 0 77 13t49.5 33t26 44t7.5 45q0 23 -8.5 47t-27.5 43.5t-48.5 32t-72.5 12.5h-114v-270zM74 686h336v-64h-269v-224h91q76 0 125 -20t77 -49.5t39 -64.5t11 -65q0 -27 -9.5 -61t-37 -65t-77 -52t-129.5 -21h-157v686z" />
    <glyph glyph-name="afii10019" unicode="&#x412;" horiz-adv-x="520" 
d="M141 64h131q28 0 52 8.5t42 24.5t28 38.5t10 49.5q0 28 -9.5 51.5t-27.5 41t-42.5 27.5t-54.5 10h-129v-251zM141 379h115q37 0 62 11.5t40.5 29.5t22 39t6.5 40q0 25 -9.5 47t-27 39t-43.5 27t-59 10h-107v-243zM74 686h175q48 0 86.5 -14t65.5 -38.5t41.5 -57
t14.5 -69.5q0 -48 -22 -90t-73 -65v-3q49 -17 81.5 -58t32.5 -104q0 -41 -14.5 -75t-42 -59t-67.5 -39t-90 -14h-188v686z" />
    <glyph glyph-name="afii10020" unicode="&#x413;" horiz-adv-x="404" 
d="M74 0v686h307v-64h-240v-622h-67z" />
    <glyph glyph-name="afii10021" unicode="&#x414;" horiz-adv-x="711" 
d="M582 64l-224 497h-2l-225 -497h451zM5 0v64h57l294 638h2l293 -638h55v-64h-701z" />
    <glyph glyph-name="afii10022" unicode="&#x415;" horiz-adv-x="505" 
d="M74 0v686h376v-64h-309v-242h275v-64h-275v-252h309v-64h-376z" />
    <glyph glyph-name="afii10024" unicode="&#x416;" horiz-adv-x="850" 
d="M94 0h-88l303 365l-268 321h83l267 -318v318h67v-318l267 318h83l-268 -321l303 -365h-88l-297 356v-356h-67v356z" />
    <glyph glyph-name="afii10025" unicode="&#x417;" horiz-adv-x="500" 
d="M48 616q30 35 75 60.5t108 25.5q54 0 93 -16.5t64.5 -42.5t38 -58t12.5 -64q0 -54 -30.5 -95t-81.5 -61q35 -10 60.5 -29t41.5 -44t23.5 -53.5t7.5 -57.5q0 -42 -15 -78t-42.5 -62.5t-67.5 -41.5t-91 -15q-19 0 -45 3.5t-54.5 16t-57 36t-52.5 63.5l52 44
q22 -43 62.5 -71t94.5 -28q30 0 56 8.5t45.5 25.5t31 42t11.5 58q0 29 -9.5 55.5t-30 46t-51.5 31t-74 11.5h-31v64h26q37 0 65 11t47 29t28 41.5t9 49.5q0 21 -8 42t-24.5 37.5t-42 27t-60.5 10.5q-47 0 -80.5 -21t-54.5 -53z" />
    <glyph glyph-name="afii10026" unicode="&#x418;" horiz-adv-x="693" 
d="M141 151h2l469 551h7v-702h-67v538h-2l-469 -554h-7v702h67v-535z" />
    <glyph glyph-name="afii10027" unicode="&#x419;" horiz-adv-x="694" 
d="M242 831q13 -32 41 -51.5t63 -19.5t63 19.5t41 51.5l54 -21q-22 -54 -66.5 -78t-91.5 -24t-91.5 24t-66.5 78zM141 151h2l470 551h7v-702h-67v538h-2l-470 -554h-7v702h67v-535z" />
    <glyph glyph-name="afii10028" unicode="&#x41a;" horiz-adv-x="546" 
d="M141 0h-67v686h67v-318l277 318h83l-278 -321l314 -365h-89l-307 356v-356z" />
    <glyph glyph-name="afii10029" unicode="&#x41b;" horiz-adv-x="699" 
d="M615 0l-268 561h-4l-266 -561h-74l341 702h2l341 -702h-72z" />
    <glyph glyph-name="afii10030" unicode="&#x41c;" horiz-adv-x="740" 
d="M641 534l-268 -554h-2l-266 553l-4 -1v-532h-69v686h71l265 -565h4l271 565h71v-686h-69v533z" />
    <glyph glyph-name="afii10031" unicode="&#x41d;" horiz-adv-x="691" 
d="M141 686v-310h409v310h67v-686h-67v312h-409v-312h-67v686h67z" />
    <glyph glyph-name="afii10032" unicode="&#x41e;" horiz-adv-x="786" 
d="M98 345q0 -62 22.5 -116t62 -94.5t93.5 -63.5t117 -23t117 23t93.5 63.5t62 94.5t22.5 116q0 52 -19.5 104.5t-57 94.5t-92.5 68t-126 26t-126 -26t-92.5 -68t-57 -94.5t-19.5 -104.5zM26 342q0 87 34 154.5t87.5 113t118.5 69t127 23.5t127 -23.5t118.5 -69t87.5 -113
t34 -154.5q0 -69 -27 -134t-76 -114.5t-116 -79.5t-148 -30t-148 30t-116 79.5t-76 114.5t-27 134z" />
    <glyph glyph-name="afii10033" unicode="&#x41f;" horiz-adv-x="666" 
d="M74 0v686h518v-686h-67v624h-384v-624h-67z" />
    <glyph glyph-name="afii10034" unicode="&#x420;" horiz-adv-x="481" 
d="M141 289q15 -2 29.5 -2.5t29.5 -0.5q48 0 82.5 14.5t57 38t33 53t10.5 60.5q0 33 -11.5 64t-34.5 55.5t-56.5 39t-76.5 14.5h-63v-336zM74 686h117q72 0 122 -22t81.5 -56t46 -75.5t14.5 -81.5q0 -47 -18.5 -89t-52.5 -73t-83 -49t-109 -18q-26 0 -51 3v-225h-67v686z
" />
    <glyph glyph-name="afii10035" unicode="&#x421;" horiz-adv-x="587" 
d="M547 584q-36 28 -76.5 41t-83.5 13q-74 0 -128.5 -27t-90 -70t-53 -96t-17.5 -105q0 -59 22.5 -112t62.5 -93t93 -63.5t115 -23.5q30 0 71 12.5t80 42.5l-10 -87q-30 -13 -69.5 -22.5t-87.5 -9.5q-83 0 -147.5 33t-109.5 85t-68.5 116.5t-23.5 126.5q0 71 27 135.5
t75.5 114t115 78.5t144.5 29q29 0 69 -6t79 -26z" />
    <glyph glyph-name="afii10036" unicode="&#x422;" horiz-adv-x="448" 
d="M256 0h-67v622h-174v64h419v-64h-178v-622z" />
    <glyph glyph-name="afii10037" unicode="&#x423;" horiz-adv-x="589" 
d="M277 181l-260 505h72l217 -426h6l192 426h70l-273 -608q-21 -43 -65.5 -68.5t-106.5 -25.5q-21 0 -49.5 6t-62.5 27l34 54q17 -11 36.5 -17t38.5 -6q13 0 29.5 3t32.5 9.5t30.5 18.5t23.5 30z" />
    <glyph glyph-name="afii10038" unicode="&#x424;" horiz-adv-x="755" 
d="M411 107q56 2 101.5 21.5t77.5 52t49.5 74.5t17.5 88t-17.5 88t-49.5 74t-77.5 52t-101.5 22v-472zM344 579q-56 -3 -101 -23t-77.5 -51.5t-50 -73.5t-17.5 -88q0 -47 17.5 -88.5t49.5 -73.5t77.5 -52t101.5 -22v472zM411 643q73 -3 132 -29t100.5 -67t63.5 -93.5
t22 -110.5q0 -56 -22 -109t-63 -94.5t-100 -67.5t-133 -29v-98h-67v98q-74 3 -132.5 29t-100 67.5t-63.5 94t-22 109.5q0 58 22.5 111t63.5 93.5t100 66t132 29.5v103h67v-103z" />
    <glyph glyph-name="afii10039" unicode="&#x425;" horiz-adv-x="635" 
d="M108 686l198 -266l2 -1l191 267h83l-235 -323l277 -363h-85l-230 307h-2l-221 -307h-81l263 363l-239 323h79z" />
    <glyph glyph-name="afii10040" unicode="&#x426;" horiz-adv-x="662" 
d="M592 686v-826h-67v140h-451v686h67v-622h384v622h67z" />
    <glyph glyph-name="afii10041" unicode="&#x427;" horiz-adv-x="593" 
d="M518 685v-685h-67v292q-16 -4 -38 -8.5t-46.5 -8t-51 -6t-51.5 -2.5q-76 0 -117.5 22.5t-60.5 56t-22.5 71.5t-3.5 70v199l67 -1v-200q0 -28 2.5 -55.5t17.5 -49.5t46.5 -35.5t89.5 -13.5q32 0 74.5 4.5t93.5 18.5v332z" />
    <glyph glyph-name="afii10042" unicode="&#x428;" horiz-adv-x="949" 
d="M508 686v-622h300v622h67v-686h-801v686h67v-622h300v622h67z" />
    <glyph glyph-name="afii10043" unicode="&#x429;" horiz-adv-x="949" 
d="M508 686v-622h300v622h67v-826h-67v140h-734v686h67v-622h300v622h67z" />
    <glyph glyph-name="afii10044" unicode="&#x42a;" horiz-adv-x="626" 
d="M249 64h111q79 0 123.5 38.5t44.5 100.5q0 28 -11 53.5t-32 44.5t-51.5 30t-70.5 11h-114v-278zM182 622h-165v64h232v-280h91q59 0 101.5 -12t71.5 -30.5t46 -41.5t26.5 -45.5t12 -42.5t2.5 -31q0 -35 -12.5 -71t-42.5 -65.5t-80 -48t-126 -18.5h-157v622z" />
    <glyph glyph-name="afii10045" unicode="&#x42b;" horiz-adv-x="730" 
d="M589 686l67 -1v-685h-67v686zM141 64h111q79 0 123.5 38.5t44.5 100.5q0 28 -11 53.5t-32 44.5t-51.5 30t-70.5 11h-114v-278zM74 686l67 -1v-279h91q59 0 101.5 -12t71.5 -30.5t46 -41.5t26.5 -45.5t12 -42.5t2.5 -31q0 -35 -12.5 -71t-42.5 -65.5t-80 -48t-126 -18.5
h-157v686z" />
    <glyph glyph-name="afii10046" unicode="&#x42c;" horiz-adv-x="518" 
d="M141 64h111q79 0 123.5 38.5t44.5 100.5q0 28 -11 53.5t-32 44.5t-51.5 30t-70.5 11h-114v-278zM74 686h67v-280h91q59 0 101.5 -12t71.5 -30.5t46 -41.5t26.5 -45.5t12 -42.5t2.5 -31q0 -35 -12.5 -71t-42.5 -65.5t-80 -48t-126 -18.5h-157v686z" />
    <glyph glyph-name="afii10047" unicode="&#x42d;" horiz-adv-x="567" 
d="M41 670q28 12 66 22t86 10q74 0 137.5 -27t110.5 -75t73.5 -113.5t26.5 -141.5q0 -81 -28 -147.5t-75 -114t-108.5 -73.5t-127.5 -26q-33 0 -78 7.5t-84 24.5l-10 83q33 -20 73 -35.5t85 -15.5q56 0 104.5 20t85.5 56t59.5 85t27.5 107h-320v64h320q-3 59 -25.5 107
t-58.5 81.5t-84.5 51.5t-103.5 18q-30 0 -55 -5.5t-45.5 -13.5t-36 -17.5t-26.5 -17.5z" />
    <glyph glyph-name="afii10048" unicode="&#x42e;" horiz-adv-x="1002" 
d="M609 638q-60 0 -114 -23t-94 -63t-63.5 -94t-23.5 -115t23.5 -114.5t63.5 -93.5t93.5 -63.5t114.5 -23.5t115 23.5t94 63.5t63 94t23 114q0 61 -23.5 114.5t-63.5 93.5t-93.5 63.5t-114.5 23.5zM244 380q10 83 48 143.5t90 100.5t112 59t115 19q75 0 142 -28t117 -77
t79 -114t29 -140q0 -74 -29 -139.5t-79 -114.5t-116.5 -77t-142.5 -28q-69 0 -132 24t-112 68t-81 105t-40 135h-103v-316h-67v686h67v-306h103z" />
    <glyph glyph-name="afii10049" unicode="&#x42f;" horiz-adv-x="511" 
d="M290 622q-36 0 -64 -12t-46.5 -31.5t-28.5 -45t-10 -53.5q0 -31 11 -57.5t30.5 -46t46 -31t57.5 -11.5h84v288h-80zM437 0h-67v326h-4l-271 -326h-91l241 284q-42 3 -75 20t-55.5 44t-34 61t-11.5 72q0 40 14 77t42 65.5t70.5 45.5t99.5 17h142v-686z" />
    <glyph glyph-name="afii10065" unicode="&#x430;" horiz-adv-x="460" 
d="M205 293q-30 0 -53.5 -10t-39.5 -26.5t-24.5 -38t-8.5 -44.5t8 -46t24 -42t41 -30.5t59 -11.5q33 0 58 10.5t42 27.5t25.5 39t8.5 46q0 23 -8.5 45.5t-25.5 40.5t-43.5 29t-62.5 11zM89 487q25 9 61 18t77 9q66 0 102.5 -21t53.5 -48t20 -53t3 -36v-356h-58v60h-3
q-26 -41 -65.5 -56.5t-78.5 -15.5q-37 0 -70.5 12.5t-59 36t-40.5 57.5t-15 76q0 44 16 77.5t42.5 56t59.5 34t67 11.5q35 0 74 -14t68 -49h2v76q0 43 -33 69.5t-87 26.5q-35 0 -69.5 -10t-62.5 -21l-29 -12z" />
    <glyph glyph-name="afii10066" unicode="&#x431;" horiz-adv-x="562" 
d="M92 245q0 -44 15.5 -81t42 -63.5t62 -41.5t74.5 -15q38 0 73 14t61.5 40.5t42 63.5t15.5 83q0 43 -14 80t-38.5 64t-59 42t-75.5 15q-42 0 -78.5 -14.5t-63 -40.5t-42 -63t-15.5 -83zM292 502q44 0 88.5 -16t80 -48.5t58 -80.5t22.5 -112q0 -61 -21.5 -109t-57 -81
t-82 -50t-95.5 -17q-51 0 -99 19.5t-84.5 59.5t-58.5 102t-22 148q0 76 15 133.5t45 101.5t74 77t102 59l203 92l34 -56q-83 -39 -156.5 -68.5t-130.5 -64.5t-93 -85t-43 -129l-2 -23h4q15 39 39 67t53 46t62 26.5t65 8.5z" />
    <glyph glyph-name="afii10067" unicode="&#x432;" horiz-adv-x="450" 
d="M115 56h128q31 0 53 7.5t35.5 19.5t19.5 27.5t6 32.5q0 9 -3 24.5t-15.5 30.5t-37.5 26t-69 11h-117v-179zM115 287h114q27 0 46.5 7t32 18.5t18.5 26t6 30.5q0 29 -23 53t-69 24h-125v-159zM229 502q49 0 81 -13t51 -32t26.5 -41.5t7.5 -40.5q0 -28 -16 -58.5t-52 -48.5
v-2q24 -7 41.5 -20.5t29 -30.5t17 -36t5.5 -38q0 -21 -8 -45.5t-28 -46t-55.5 -35.5t-89.5 -14h-185v502h175z" />
    <glyph glyph-name="afii10068" unicode="&#x433;" horiz-adv-x="340" 
d="M323 502v-56h-208v-446h-61v502h269z" />
    <glyph glyph-name="afii10069" unicode="&#x434;" horiz-adv-x="507" 
d="M396 56l-143 324h-2l-138 -324h283zM3 0v56h46l202 458h2l205 -458h46v-56h-501z" />
    <glyph glyph-name="afii10070" unicode="&#x435;" horiz-adv-x="552" 
d="M283 44q51 0 94 24.5t70 65.5h71q-16 -32 -40.5 -59t-54.5 -46.5t-65.5 -30t-74.5 -10.5q-54 0 -102 20.5t-83.5 56.5t-56 84t-20.5 102q0 55 19 103t53 83.5t80 56t100 20.5q61 0 109 -20.5t81 -56t50 -83.5t17 -103h-446q0 -42 16 -80t43 -66t63 -44.5t77 -16.5z
M460 306q-5 33 -20.5 60.5t-39.5 48t-56.5 32t-70.5 11.5q-34 0 -63.5 -11.5t-52.5 -32t-40 -48t-26 -60.5h369z" />
    <glyph glyph-name="afii10072" unicode="&#x436;" horiz-adv-x="678" 
d="M367 0h-61v256l-227 -256h-74l240 268l-208 234h67l202 -232v232h61v-232l202 232h68l-209 -234l240 -268h-74l-227 256v-256z" />
    <glyph glyph-name="afii10073" unicode="&#x437;" horiz-adv-x="392" 
d="M27 450q41 40 82 52t75 12q43 0 73.5 -13t49.5 -33t28 -43.5t9 -45.5q0 -39 -21.5 -68.5t-57.5 -43.5v-2q48 -13 72.5 -46.5t24.5 -78.5q0 -29 -10.5 -56t-32 -48.5t-55.5 -34.5t-80 -13q-14 0 -32 2.5t-39 11t-43.5 23.5t-44.5 40l40 43q20 -26 51 -45t72 -19
q45 0 78 25t33 70q0 34 -15 53t-36.5 28t-45 11t-40.5 2h-20v56h20q37 0 60 8t36 20.5t18 28t5 29.5q0 32 -24 57.5t-75 25.5q-9 0 -22.5 -1.5t-29.5 -6.5t-33.5 -16t-35.5 -29z" />
    <glyph glyph-name="afii10074" unicode="&#x438;" horiz-adv-x="521" 
d="M462 514h5v-514h-61v374l-347 -386h-5v514h61v-375z" />
    <glyph glyph-name="afii10075" unicode="&#x439;" horiz-adv-x="521" 
d="M164 687q13 -25 37 -43t59 -18t59 18t37 43l44 -18q-19 -42 -55.5 -66.5t-84.5 -24.5q-29 0 -52 8.5t-40 21.5t-29 29.5t-19 31.5zM462 514h5v-514h-61v374l-347 -386h-5v514h61v-375z" />
    <glyph glyph-name="afii10076" unicode="&#x43a;" horiz-adv-x="456" 
d="M115 0h-61v502h61v-238l213 238h72l-221 -240l262 -262h-81l-245 250v-250z" />
    <glyph glyph-name="afii10077" unicode="&#x43b;" horiz-adv-x="480" 
d="M236 514l237 -514h-60l-176 374h-4l-167 -374h-63l231 514h2z" />
    <glyph glyph-name="afii10078" unicode="&#x43c;" horiz-adv-x="535" 
d="M435 355l-170 -367h-2l-166 367l-4 -1v-354h-61v502h61l169 -374h4l173 374h62v-502h-62v354z" />
    <glyph glyph-name="afii10079" unicode="&#x43d;" horiz-adv-x="506" 
d="M115 502v-220h276v220h61v-502h-61v226h-276v-226h-61v502h61z" />
    <glyph glyph-name="afii10080" unicode="&#x43e;" horiz-adv-x="566" 
d="M84 251q0 -42 16 -80t43 -66t63 -44.5t77 -16.5q42 0 78 16.5t63 45t42.5 66t15.5 79.5t-15.5 80t-42.5 66t-63.5 44.5t-77.5 16.5t-77 -16.5t-63 -44.5t-43 -65.5t-16 -80.5zM21 251q0 55 20.5 103t56.5 83.5t83.5 56t101.5 20.5t101.5 -20.5t83.5 -56t56.5 -83.5
t20.5 -103q0 -54 -20.5 -102t-56 -84t-83.5 -56.5t-102 -20.5t-102 20.5t-83.5 56.5t-56 84t-20.5 102z" />
    <glyph glyph-name="afii10081" unicode="&#x43f;" horiz-adv-x="501" 
d="M447 502v-502h-61v446h-271v-446h-61v502h393z" />
    <glyph glyph-name="afii10082" unicode="&#x440;" horiz-adv-x="601" 
d="M316 458q-44 0 -81 -17.5t-63.5 -46.5t-41.5 -67t-15 -79q0 -45 17.5 -82.5t46.5 -64.5t66.5 -42t76.5 -15q40 0 75.5 14.5t62 41.5t42 64.5t15.5 83.5q0 47 -15 85.5t-41.5 66.5t-63.5 43t-81 15zM115 502v-102h4q35 57 86 85.5t116 28.5q59 0 107 -20t81.5 -55.5
t52 -83.5t18.5 -104q0 -58 -20 -106t-54.5 -83t-80.5 -54.5t-99 -19.5q-27 0 -55.5 5.5t-56 18t-52.5 32t-44 48.5h-3v-279h-61v689h61z" />
    <glyph glyph-name="afii10083" unicode="&#x441;" horiz-adv-x="490" 
d="M423 404q-63 54 -141 54q-40 0 -76 -14.5t-63 -41.5t-43 -65t-16 -85q0 -38 12.5 -75t37.5 -66.5t63 -48t88 -18.5q79 0 136 53l37 -46q-25 -20 -49 -32.5t-46 -19.5t-42 -9t-36 -2q-66 0 -115.5 24t-82.5 61.5t-49.5 84.5t-16.5 94q0 53 20 100.5t55 83.5t84 57t106 21
q58 0 101 -18.5t73 -44.5z" />
    <glyph glyph-name="afii10084" unicode="&#x442;" horiz-adv-x="357" 
d="M5 446v56h346v-56h-145v-446h-61v446h-140z" />
    <glyph glyph-name="afii10085" unicode="&#x443;" horiz-adv-x="548" 
d="M256 47l-236 455h70l198 -382h4l171 382h65q-71 -154 -136.5 -307t-138.5 -301q-14 -27 -33 -42.5t-39.5 -23.5t-39 -10.5t-31.5 -2.5t-32.5 2t-40.5 10l19 51q11 -3 21 -5t21 -2q43 0 67.5 17t35.5 40z" />
    <glyph glyph-name="afii10086" unicode="&#x444;" horiz-adv-x="605" 
d="M333 56q43 2 78 20t59.5 45t37.5 61t13 69q0 36 -13 70t-37.5 61t-59.5 44.5t-78 19.5v-390zM272 446q-43 -2 -78 -19.5t-59.5 -44.5t-37.5 -61t-13 -70q0 -35 13 -69t37.5 -61t59 -45t78.5 -20v390zM333 686v-184q57 -3 103.5 -25.5t79.5 -57t50.5 -78t17.5 -90.5
q0 -45 -17 -88.5t-49.5 -78.5t-79 -58t-105.5 -26v-187h-61v187q-59 3 -105.5 26t-79 58t-49.5 78.5t-17 88.5q0 47 17.5 90.5t50.5 78t79.5 57t103.5 25.5v184h61z" />
    <glyph glyph-name="afii10087" unicode="&#x445;" horiz-adv-x="485" 
d="M85 502l150 -200h4l146 200h74l-181 -244l199 -258h-84l-155 209h-4l-148 -209h-82l195 256l-188 246h74z" />
    <glyph glyph-name="afii10088" unicode="&#x446;" horiz-adv-x="498" 
d="M447 502v-619h-61v117h-332v502h61v-446h271v446h61z" />
    <glyph glyph-name="afii10089" unicode="&#x447;" horiz-adv-x="462" 
d="M408 502v-502h-61v208q-26 -7 -63.5 -14.5t-75.5 -7.5q-59 0 -92.5 18t-50.5 45.5t-21 61t-4 63.5v128h61v-121q0 -27 2 -52t12.5 -44.5t34 -31t65.5 -11.5q23 0 54.5 4t77.5 16v240h61z" />
    <glyph glyph-name="afii10090" unicode="&#x448;" horiz-adv-x="709" 
d="M385 502v-446h209v446h61v-502h-601v502h61v-446h209v446h61z" />
    <glyph glyph-name="afii10091" unicode="&#x449;" horiz-adv-x="711" 
d="M385 502v-446h209v446h61v-619h-61v117h-540v502h61v-446h209v446h61z" />
    <glyph glyph-name="afii10092" unicode="&#x44a;" horiz-adv-x="524" 
d="M212 56h103q33 0 56.5 8.5t39 22.5t22.5 31.5t7 36.5t-7 37t-22.5 32t-39 23t-56.5 9h-103v-200zM212 312h111q44 0 77.5 -13.5t56.5 -35t34.5 -50t11.5 -58.5q0 -19 -7.5 -45.5t-27.5 -51t-57 -41.5t-95 -17h-165v446h-136v56h197v-190z" />
    <glyph glyph-name="afii10093" unicode="&#x44b;" horiz-adv-x="585" 
d="M470 0v502h61v-502h-61zM115 56h98q33 0 56.5 8.5t39 22.5t22.5 31.5t7 36.5t-7 37t-22.5 32t-39 23t-56.5 9h-98v-200zM115 502v-190h106q44 0 77.5 -13.5t56.5 -35t34.5 -50t11.5 -58.5q0 -29 -11.5 -57t-34.5 -49.5t-58 -35t-83 -13.5h-160v502h61z" />
    <glyph glyph-name="afii10094" unicode="&#x44c;" horiz-adv-x="427" 
d="M115 56h103q33 0 56.5 8.5t39 22.5t22.5 31.5t7 36.5t-7 37t-22.5 32t-39 23t-56.5 9h-103v-200zM115 502v-190h111q44 0 77.5 -13.5t56.5 -35t34.5 -50t11.5 -58.5q0 -29 -11.5 -57t-34.5 -49.5t-58 -35t-83 -13.5h-165v502h61z" />
    <glyph glyph-name="afii10095" unicode="&#x44d;" horiz-adv-x="493" 
d="M141 282h268q-6 43 -25.5 76t-47 55.5t-62 33.5t-71.5 11t-73.5 -12.5t-68.5 -37.5l-36 47q47 34 94.5 46.5t82.5 12.5q55 0 104.5 -18.5t86 -53t58 -83.5t21.5 -109q0 -58 -20 -106.5t-55.5 -83t-84 -53.5t-106.5 -19q-36 0 -81.5 12t-97.5 50l29 47q27 -20 66 -36.5
t89 -16.5q40 0 74.5 13t61 37t43 57.5t19.5 74.5h-268v56z" />
    <glyph glyph-name="afii10096" unicode="&#x44e;" horiz-adv-x="712" 
d="M432 458q-40 0 -75.5 -16t-62.5 -44t-42.5 -66t-15.5 -81t15.5 -80.5t42 -65.5t62 -44.5t76.5 -16.5q40 0 76 16.5t62.5 44.5t42 65.5t15.5 80.5t-15.5 81t-42.5 66t-62.5 44t-75.5 16zM175 282q6 59 32 102.5t62.5 72.5t79.5 43t83 14q54 0 101 -20.5t82 -56t55.5 -83.5
t20.5 -103q0 -54 -20 -102t-55.5 -84t-82.5 -56.5t-101 -20.5q-51 0 -95 18t-78 49.5t-56 75.5t-28 95h-60v-226h-61v502h61v-220h60z" />
    <glyph glyph-name="afii10097" unicode="&#x44f;" horiz-adv-x="413" 
d="M299 446h-74q-31 0 -53.5 -8t-37 -21t-21.5 -30.5t-7 -35.5q0 -42 33 -70t93 -28h67v193zM360 0h-61v239h-3l-209 -239h-81l185 209q-35 2 -62.5 14t-46.5 31.5t-29 45t-10 52.5q0 24 9.5 50.5t31 48.5t57.5 36.5t90 14.5h129v-502z" />
    <glyph glyph-name="periodcentered" unicode="&#x2219;" horiz-adv-x="506" 
d="M115 502v-320q0 -17 1.5 -35t7.5 -35t19 -32t36 -25q23 -11 54 -11q56 0 87.5 23t47.5 58t19.5 75.5t3.5 75.5v226h61v-502h-61v75h-2q-15 -29 -35 -46t-41.5 -26t-42.5 -12t-38 -3q-26 0 -55.5 5.5t-61.5 29.5v-199h-61v678h61z" />
    </font>
</defs>
</svg>
